<?xml version="1.0" encoding="us-ascii" standalone="no"?><svg xmlns="http://www.w3.org/2000/svg" xmlns:xlink="http://www.w3.org/1999/xlink" contentStyleType="text/css" preserveAspectRatio="meet" version="1.1" viewBox="0 0 707 525" zoomAndPan="magnify"><defs/><g><text fill="#000000" font-family="sans-serif" font-size="14" font-weight="bold" lengthAdjust="spacing" textLength="268" x="212.5" y="22.9951">Bichard - Reporting - Components</text><!--cluster Bichard.Reporting_boundary--><g id="cluster_Bichard.Reporting_boundary"><rect fill="none" height="365" rx="2.5" ry="2.5" style="stroke:#444444;stroke-width:1.0;stroke-dasharray:7.0,7.0;" width="221" x="7" y="44.2969"/><text fill="#444444" font-family="sans-serif" font-size="16" font-weight="bold" lengthAdjust="spacing" textLength="87" x="74" y="61.1484">Reporting</text><text fill="#444444" font-family="sans-serif" font-size="12" font-weight="bold" lengthAdjust="spacing" textLength="80" x="77.5" y="76.0605">[Container]</text></g><!--entity Bichard.Reporting.AutomationReport--><g id="elem_Bichard.Reporting.AutomationReport"><rect fill="#85BBF0" height="38.625" rx="2.5" ry="2.5" style="stroke:#78A8D8;stroke-width:0.5;" width="189" x="23" y="279.7969"/><text fill="#000000" font-family="sans-serif" font-size="16" font-weight="bold" lengthAdjust="spacing" textLength="102" x="33" y="304.6484">Automation</text><text fill="#000000" font-family="sans-serif" font-size="16" font-weight="bold" lengthAdjust="spacing" textLength="6" x="135" y="304.6484">&#160;</text><text fill="#000000" font-family="sans-serif" font-size="16" font-weight="bold" lengthAdjust="spacing" textLength="61" x="141" y="304.6484">Report</text></g><!--entity Bichard.Reporting.CommonPlatformReport--><g id="elem_Bichard.Reporting.CommonPlatformReport"><rect fill="#85BBF0" height="57.25" rx="2.5" ry="2.5" style="stroke:#78A8D8;stroke-width:0.5;" width="179" x="28" y="95.7969"/><text fill="#000000" font-family="sans-serif" font-size="16" font-weight="bold" lengthAdjust="spacing" textLength="77" x="38" y="120.6484">Common</text><text fill="#000000" font-family="sans-serif" font-size="16" font-weight="bold" lengthAdjust="spacing" textLength="6" x="115" y="120.6484">&#160;</text><text fill="#000000" font-family="sans-serif" font-size="16" font-weight="bold" lengthAdjust="spacing" textLength="76" x="121" y="120.6484">Platform</text><text fill="#000000" font-family="sans-serif" font-size="16" font-weight="bold" lengthAdjust="spacing" textLength="61" x="87" y="139.2734">Report</text></g><!--entity Bichard.Reporting.MPSReport--><g id="elem_Bichard.Reporting.MPSReport"><rect fill="#85BBF0" height="38.625" rx="2.5" ry="2.5" style="stroke:#78A8D8;stroke-width:0.5;" width="126" x="54.5" y="353.7969"/><text fill="#000000" font-family="sans-serif" font-size="16" font-weight="bold" lengthAdjust="spacing" textLength="39" x="64.5" y="378.6484">MPS</text><text fill="#000000" font-family="sans-serif" font-size="16" font-weight="bold" lengthAdjust="spacing" textLength="6" x="103.5" y="378.6484">&#160;</text><text fill="#000000" font-family="sans-serif" font-size="16" font-weight="bold" lengthAdjust="spacing" textLength="61" x="109.5" y="378.6484">Report</text></g><!--entity Bichard.Reporting.TopExceptionsReport--><g id="elem_Bichard.Reporting.TopExceptionsReport"><rect fill="#85BBF0" height="57.25" rx="2.5" ry="2.5" style="stroke:#78A8D8;stroke-width:0.5;" width="155" x="40" y="187.7969"/><text fill="#000000" font-family="sans-serif" font-size="16" font-weight="bold" lengthAdjust="spacing" textLength="33" x="50" y="212.6484">Top</text><text fill="#000000" font-family="sans-serif" font-size="16" font-weight="bold" lengthAdjust="spacing" textLength="6" x="83" y="212.6484">&#160;</text><text fill="#000000" font-family="sans-serif" font-size="16" font-weight="bold" lengthAdjust="spacing" textLength="96" x="89" y="212.6484">Exceptions</text><text fill="#000000" font-family="sans-serif" font-size="16" font-weight="bold" lengthAdjust="spacing" textLength="61" x="87" y="231.2734">Report</text></g><!--entity Bichard.StaticFileService--><g id="elem_Bichard.StaticFileService"><rect fill="#438DD5" height="38.625" rx="2.5" ry="2.5" style="stroke:#3C7FC0;stroke-width:0.5;" width="177" x="276" y="284.7969"/><text fill="#FFFFFF" font-family="sans-serif" font-size="16" font-weight="bold" lengthAdjust="spacing" textLength="51" x="286" y="309.6484">Static</text><text fill="#FFFFFF" font-family="sans-serif" font-size="16" font-weight="bold" lengthAdjust="spacing" textLength="6" x="337" y="309.6484">&#160;</text><text fill="#FFFFFF" font-family="sans-serif" font-size="16" font-weight="bold" lengthAdjust="spacing" textLength="29" x="343" y="309.6484">File</text><text fill="#FFFFFF" font-family="sans-serif" font-size="16" font-weight="bold" lengthAdjust="spacing" textLength="6" x="372" y="309.6484">&#160;</text><text fill="#FFFFFF" font-family="sans-serif" font-size="16" font-weight="bold" lengthAdjust="spacing" textLength="65" x="378" y="309.6484">Service</text></g><!--entity Bichard.BichardDatabase--><g id="elem_Bichard.BichardDatabase"><path d="M515,340.2969 C515,330.2969 602.5,330.2969 602.5,330.2969 C602.5,330.2969 690,330.2969 690,340.2969 L690,381.8906 C690,391.8906 602.5,391.8906 602.5,391.8906 C602.5,391.8906 515,391.8906 515,381.8906 L515,340.2969 " fill="#438DD5" style="stroke:#3C7FC0;stroke-width:0.5;"/><path d="M515,340.2969 C515,350.2969 602.5,350.2969 602.5,350.2969 C602.5,350.2969 690,350.2969 690,340.2969 " fill="none" style="stroke:#3C7FC0;stroke-width:0.5;"/><text fill="#FFFFFF" font-family="sans-serif" font-size="16" font-weight="bold" lengthAdjust="spacing" textLength="66" x="525" y="369.1484">Bichard</text><text fill="#FFFFFF" font-family="sans-serif" font-size="16" font-weight="bold" lengthAdjust="spacing" textLength="6" x="591" y="369.1484">&#160;</text><text fill="#FFFFFF" font-family="sans-serif" font-size="16" font-weight="bold" lengthAdjust="spacing" textLength="83" x="597" y="369.1484">Database</text><text fill="#FFFFFF" font-family="sans-serif" font-size="12" font-style="italic" lengthAdjust="spacing" textLength="82" x="561.5" y="384.0605">[PostgreSQL]</text></g><!--entity Bichard.EmailSystem--><g id="elem_Bichard.EmailSystem"><rect fill="#438DD5" height="52.5938" rx="2.5" ry="2.5" style="stroke:#3C7FC0;stroke-width:0.5;" width="136" x="296.5" y="45.7969"/><text fill="#FFFFFF" font-family="sans-serif" font-size="16" font-weight="bold" lengthAdjust="spacing" textLength="44" x="306.5" y="70.6484">Email</text><text fill="#FFFFFF" font-family="sans-serif" font-size="16" font-weight="bold" lengthAdjust="spacing" textLength="6" x="350.5" y="70.6484">&#160;</text><text fill="#FFFFFF" font-family="sans-serif" font-size="16" font-weight="bold" lengthAdjust="spacing" textLength="66" x="356.5" y="70.6484">System</text><text fill="#FFFFFF" font-family="sans-serif" font-size="12" font-style="italic" lengthAdjust="spacing" textLength="51" x="339" y="85.5605">[Postfix]</text></g><!--entity Bichard.AuditLog--><g id="elem_Bichard.AuditLog"><rect fill="#438DD5" height="38.625" rx="2.5" ry="2.5" style="stroke:#3C7FC0;stroke-width:0.5;" width="104" x="312.5" y="192.7969"/><text fill="#FFFFFF" font-family="sans-serif" font-size="16" font-weight="bold" lengthAdjust="spacing" textLength="46" x="322.5" y="217.6484">Audit</text><text fill="#FFFFFF" font-family="sans-serif" font-size="16" font-weight="bold" lengthAdjust="spacing" textLength="6" x="368.5" y="217.6484">&#160;</text><text fill="#FFFFFF" font-family="sans-serif" font-size="16" font-weight="bold" lengthAdjust="spacing" textLength="32" x="374.5" y="217.6484">Log</text></g><!--link Bichard.AuditLog to Bichard.BichardDatabase--><g id="link_Bichard.AuditLog_Bichard.BichardDatabase"><path d="M396.7,231.8769 C413.41,242.3669 434.33,255.5269 453,267.2969 C483.57,286.5769 517.65,308.1469 545.44,325.7469 " fill="none" id="Bichard.AuditLog-to-Bichard.BichardDatabase" style="stroke:#666666;stroke-width:1.0;"/><polygon fill="#666666" points="552.36,330.1369,547.1943,323.3313,543.9931,328.406,552.36,330.1369" style="stroke:#666666;stroke-width:1.0;"/><text fill="#666666" font-family="sans-serif" font-size="0" lengthAdjust="spacing" textLength="0" x="484" y="276.2969">.</text></g><!--link Bichard.Reporting.AutomationReport to Bichard.AuditLog--><g id="link_Bichard.Reporting.AutomationReport_Bichard.AuditLog"><path d="M212.14,291.2569 C223.71,288.9669 235.24,286.0369 246,282.2969 C254.52,279.3269 294.35,255.2069 325.3,236.0969 " fill="none" id="Bichard.Reporting.AutomationReport-to-Bichard.AuditLog" style="stroke:#666666;stroke-width:1.0;"/><polygon fill="#666666" points="332.15,231.8569,323.7671,233.5084,326.9201,238.6132,332.15,231.8569" style="stroke:#666666;stroke-width:1.0;"/><text fill="#666666" font-family="sans-serif" font-size="0" lengthAdjust="spacing" textLength="0" x="245" y="271.2969">.</text></g><!--link Bichard.Reporting.CommonPlatformReport to Bichard.AuditLog--><g id="link_Bichard.Reporting.CommonPlatformReport_Bichard.AuditLog"><path d="M198.04,152.8669 C232.84,165.3669 272.93,179.7669 304.93,191.2569 " fill="none" id="Bichard.Reporting.CommonPlatformReport-to-Bichard.AuditLog" style="stroke:#666666;stroke-width:1.0;"/><polygon fill="#666666" points="312.47,193.9669,305.9524,188.4423,303.9269,194.0901,312.47,193.9669" style="stroke:#666666;stroke-width:1.0;"/><text fill="#666666" font-family="sans-serif" font-size="0" lengthAdjust="spacing" textLength="0" x="245" y="159.2969">.</text></g><!--link Bichard.Reporting.AutomationReport to Bichard.StaticFileService--><g id="link_Bichard.Reporting.AutomationReport_Bichard.StaticFileService"><path d="M158.67,318.8669 C183.48,328.7969 216.16,338.0469 246,334.2969 C260.72,332.4469 276.23,329.3469 290.99,325.8169 " fill="none" id="Bichard.Reporting.AutomationReport-to-Bichard.StaticFileService" style="stroke:#666666;stroke-width:1.0;"/><polygon fill="#666666" points="299.11,323.8169,290.6242,322.821,292.0618,328.6462,299.11,323.8169" style="stroke:#666666;stroke-width:1.0;"/><text fill="#666666" font-family="sans-serif" font-size="0" lengthAdjust="spacing" textLength="0" x="245" y="323.2969">.</text></g><!--link Bichard.Reporting.TopExceptionsReport to Bichard.StaticFileService--><g id="link_Bichard.Reporting.TopExceptionsReport_Bichard.StaticFileService"><path d="M195.01,243.7769 C229.2,256.0569 268.97,270.3469 301.29,281.9469 " fill="none" id="Bichard.Reporting.TopExceptionsReport-to-Bichard.StaticFileService" style="stroke:#666666;stroke-width:1.0;"/><polygon fill="#666666" points="308.91,284.6869,302.3924,279.1623,300.3669,284.8101,308.91,284.6869" style="stroke:#666666;stroke-width:1.0;"/><text fill="#666666" font-family="sans-serif" font-size="0" lengthAdjust="spacing" textLength="0" x="245" y="251.2969">.</text></g><!--link Bichard.Reporting.CommonPlatformReport to Bichard.EmailSystem--><g id="link_Bichard.Reporting.CommonPlatformReport_Bichard.EmailSystem"><path d="M207.3,105.4469 C233.86,99.8169 262.71,93.6869 288.3,88.2569 " fill="none" id="Bichard.Reporting.CommonPlatformReport-to-Bichard.EmailSystem" style="stroke:#666666;stroke-width:1.0;"/><polygon fill="#666666" points="296.13,86.5969,287.6822,85.3186,288.9247,91.1886,296.13,86.5969" style="stroke:#666666;stroke-width:1.0;"/><text fill="#666666" font-family="sans-serif" font-size="0" lengthAdjust="spacing" textLength="0" x="245" y="87.2969">.</text></g><!--link Bichard.Reporting.MPSReport to Bichard.BichardDatabase--><g id="link_Bichard.Reporting.MPSReport_Bichard.BichardDatabase"><path d="M180.66,371.7569 C263.3,369.6969 410.15,366.0469 506.68,363.6569 " fill="none" id="Bichard.Reporting.MPSReport-to-Bichard.BichardDatabase" style="stroke:#666666;stroke-width:1.0;"/><polygon fill="#666666" points="514.7,363.4569,506.6274,360.6581,506.7776,366.6562,514.7,363.4569" style="stroke:#666666;stroke-width:1.0;"/><text fill="#666666" font-family="sans-serif" font-size="0" lengthAdjust="spacing" textLength="0" x="364.5" y="353.2969">.</text></g><!--link Bichard.Reporting.TopExceptionsReport to Bichard.AuditLog--><g id="link_Bichard.Reporting.TopExceptionsReport_Bichard.AuditLog"><path d="M195.01,215.0469 C230.22,214.4769 271.35,213.7969 304.16,213.2669 " fill="none" id="Bichard.Reporting.TopExceptionsReport-to-Bichard.AuditLog" style="stroke:#666666;stroke-width:1.0;"/><polygon fill="#666666" points="312.32,213.1369,304.2728,210.2658,304.3692,216.265,312.32,213.1369" style="stroke:#666666;stroke-width:1.0;"/><text fill="#666666" font-family="sans-serif" font-size="0" lengthAdjust="spacing" textLength="0" x="245" y="203.2969">.</text></g><rect fill="none" height="16.2969" style="stroke:none;stroke-width:1.0;" width="205" x="471" y="433.2969"/><text fill="#000000" font-family="sans-serif" font-size="14" font-weight="bold" lengthAdjust="spacing" textLength="59" x="471" y="446.292">Legend</text><text fill="#FFFFFF" font-family="sans-serif" font-size="14" lengthAdjust="spacing" textLength="4" x="530" y="446.292">&#160;</text><rect fill="#438DD5" height="16.2969" style="stroke:none;stroke-width:1.0;" width="205" x="471" y="449.5938"/><text fill="#3C7FC0" font-family="sans-serif" font-size="14" lengthAdjust="spacing" textLength="8" x="475" y="462.5889">&#9647;</text><text fill="#FFFFFF" font-family="sans-serif" font-size="14" lengthAdjust="spacing" textLength="4" x="483" y="462.5889">&#160;</text><text fill="#FFFFFF" font-family="sans-serif" font-size="14" lengthAdjust="spacing" textLength="65" x="491" y="462.5889">container</text><text fill="#FFFFFF" font-family="sans-serif" font-size="14" lengthAdjust="spacing" textLength="4" x="560" y="462.5889">&#160;</text><rect fill="#85BBF0" height="16.2969" style="stroke:none;stroke-width:1.0;" width="205" x="471" y="465.8906"/><text fill="#78A8D8" font-family="sans-serif" font-size="14" lengthAdjust="spacing" textLength="8" x="475" y="478.8857">&#9647;</text><text fill="#FFFFFF" font-family="sans-serif" font-size="14" lengthAdjust="spacing" textLength="4" x="483" y="478.8857">&#160;</text><text fill="#000000" font-family="sans-serif" font-size="14" lengthAdjust="spacing" textLength="80" x="491" y="478.8857">component</text><text fill="#FFFFFF" font-family="sans-serif" font-size="14" lengthAdjust="spacing" textLength="4" x="575" y="478.8857">&#160;</text><rect fill="none" height="16.2969" style="stroke:none;stroke-width:1.0;" width="205" x="471" y="482.1875"/><text fill="#444444" font-family="sans-serif" font-size="14" lengthAdjust="spacing" textLength="8" x="475" y="495.1826">&#9647;</text><text fill="#FFFFFF" font-family="sans-serif" font-size="14" lengthAdjust="spacing" textLength="4" x="483" y="495.1826">&#160;</text><text fill="#444444" font-family="sans-serif" font-size="14" lengthAdjust="spacing" textLength="134" x="491" y="495.1826">container boundary</text><text fill="#444444" font-family="sans-serif" font-size="10" lengthAdjust="spacing" textLength="43" x="629" y="496.126">(dashed)</text><text fill="#FFFFFF" font-family="sans-serif" font-size="14" lengthAdjust="spacing" textLength="4" x="672" y="495.1826">&#160;</text><line style="stroke:none;stroke-width:1.0;" x1="471" x2="676" y1="433.2969" y2="433.2969"/><line style="stroke:none;stroke-width:1.0;" x1="471" x2="676" y1="449.5938" y2="449.5938"/><line style="stroke:none;stroke-width:1.0;" x1="471" x2="676" y1="465.8906" y2="465.8906"/><line style="stroke:none;stroke-width:1.0;" x1="471" x2="676" y1="482.1875" y2="482.1875"/><line style="stroke:none;stroke-width:1.0;" x1="471" x2="676" y1="498.4844" y2="498.4844"/><line style="stroke:none;stroke-width:1.0;" x1="471" x2="471" y1="433.2969" y2="498.4844"/><line style="stroke:none;stroke-width:1.0;" x1="676" x2="676" y1="433.2969" y2="498.4844"/></g></svg>