<svg id="Artwork_16x16" data-name="Artwork 16x16" xmlns="http://www.w3.org/2000/svg" viewBox="0 0 25 25">
    <path d="M12.5 0L25 24H0L12.5 0Z" fill="#D4351C" />
    <path
      d="M13.7983 8.47621L13.5629 17.1332H11.3533L11.1119 8.47621H13.7983ZM12.4581 20.9968C12.0597 20.9968 11.7176 20.8559 11.4318 20.5742C11.1461 20.2885 11.0052 19.9464 11.0092 19.5479C11.0052 19.1535 11.1461 18.8155 11.4318 18.5337C11.7176 18.252 12.0597 18.1112 12.4581 18.1112C12.8404 18.1112 13.1765 18.252 13.4663 18.5337C13.756 18.8155 13.9029 19.1535 13.907 19.5479C13.9029 19.8136 13.8325 20.0571 13.6957 20.2784C13.5629 20.4957 13.3878 20.6708 13.1705 20.8036C12.9531 20.9324 12.7157 20.9968 12.4581 20.9968Z"
      fill="white"
    />
</svg>