<?xml version="1.0" encoding="us-ascii" standalone="no"?><svg xmlns="http://www.w3.org/2000/svg" xmlns:xlink="http://www.w3.org/1999/xlink" contentStyleType="text/css" height="367px" preserveAspectRatio="none" style="width:563px;height:367px;background:#FFFFFF;" version="1.1" viewBox="0 0 563 367" width="563px" zoomAndPan="magnify"><defs/><g><text fill="#000000" font-family="sans-serif" font-size="14" font-weight="bold" lengthAdjust="spacing" textLength="200" x="174.5" y="22.9951">Bichard - System Context</text><!--cluster group_1--><g id="cluster_group_1"><rect fill="none" height="152" rx="2.5" ry="2.5" style="stroke:#CCCCCC;stroke-width:1.0;stroke-dasharray:7.0,7.0;" width="550" x="7" y="44.2969"/><text fill="#CCCCCC" font-family="sans-serif" font-size="16" font-weight="bold" lengthAdjust="spacing" textLength="39" x="262.5" y="61.1484">CJSE</text></g><!--entity Bichard--><g id="elem_Bichard"><rect fill="#1168BD" height="38.625" rx="2.5" ry="2.5" style="stroke:#3C7FC0;stroke-width:0.5;" width="86" x="153" y="125.7969"/><text fill="#FFFFFF" font-family="sans-serif" font-size="16" font-weight="bold" lengthAdjust="spacing" textLength="66" x="163" y="150.6484">Bichard</text></g><!--entity PSNProxy--><g id="elem_PSNProxy"><rect fill="#1168BD" height="71.2188" rx="2.5" ry="2.5" style="stroke:#3C7FC0;stroke-width:0.5;" width="113" x="428" y="94.7969"/><text fill="#FFFFFF" font-family="sans-serif" font-size="16" font-weight="bold" lengthAdjust="spacing" textLength="36" x="438" y="119.6484">PSN</text><text fill="#FFFFFF" font-family="sans-serif" font-size="16" font-weight="bold" lengthAdjust="spacing" textLength="6" x="474" y="119.6484">&#160;</text><text fill="#FFFFFF" font-family="sans-serif" font-size="16" font-weight="bold" lengthAdjust="spacing" textLength="51" x="480" y="119.6484">Proxy</text><text fill="#FFFFFF" font-family="sans-serif" font-size="14" lengthAdjust="spacing" textLength="4" x="482.5" y="136.417">&#160;</text><text fill="#FFFFFF" font-family="sans-serif" font-size="14" lengthAdjust="spacing" textLength="72" x="448.5" y="152.7139">Q-Solution</text></g><!--entity ExISS--><g id="elem_ExISS"><rect fill="#1168BD" height="38.625" rx="2.5" ry="2.5" style="stroke:#3C7FC0;stroke-width:0.5;" width="68" x="23" y="125.7969"/><text fill="#FFFFFF" font-family="sans-serif" font-size="16" font-weight="bold" lengthAdjust="spacing" textLength="48" x="33" y="150.6484">ExISS</text></g><!--entity CJSM--><g id="elem_CJSM"><rect fill="#1168BD" height="38.625" rx="2.5" ry="2.5" style="stroke:#3C7FC0;stroke-width:0.5;" width="65" x="452" y="212.7969"/><text fill="#FFFFFF" font-family="sans-serif" font-size="16" font-weight="bold" lengthAdjust="spacing" textLength="45" x="462" y="237.6484">CJSM</text></g><!--link Bichard to PSNProxy--><g id="link_Bichard_PSNProxy"><path d="M239.26,146.6669 C249.02,146.9269 259.37,147.1669 269,147.2969 C326.33,148.0969 340.94,152.9169 398,147.2969 C404.93,146.6169 412.13,145.6269 419.28,144.4669 " fill="none" id="Bichard-to-PSNProxy" style="stroke:#666666;stroke-width:1.0;"/><polygon fill="#666666" points="427.63,143.0369,419.2399,141.4224,420.2472,147.3373,427.63,143.0369" style="stroke:#666666;stroke-width:1.0;"/><text fill="#666666" font-family="sans-serif" font-size="0" lengthAdjust="spacing" textLength="0" x="333.5" y="136.2969">.</text></g><!--link PSNProxy to Bichard--><g id="link_PSNProxy_Bichard"><path d="M427.81,128.2369 C384.44,127.2569 322.76,127.2269 269,132.2969 C261.85,132.9669 254.34,133.9769 246.99,135.1469 " fill="none" id="PSNProxy-to-Bichard" style="stroke:#666666;stroke-width:1.0;"/><polygon fill="#666666" points="239.09,136.4669,247.4743,138.1109,246.488,132.1925,239.09,136.4669" style="stroke:#666666;stroke-width:1.0;"/><text fill="#666666" font-family="sans-serif" font-size="0" lengthAdjust="spacing" textLength="0" x="333.5" y="117.2969">.</text></g><!--link Bichard to CJSM--><g id="link_Bichard_CJSM"><path d="M225.7,164.9069 C238.48,172.8669 254.01,181.5269 269,187.2969 C327.55,209.8369 399.65,222.0069 443.57,227.8169 " fill="none" id="Bichard-to-CJSM" style="stroke:#666666;stroke-width:1.0;"/><polygon fill="#666666" points="451.7,228.8669,444.1524,224.8626,443.3805,230.8127,451.7,228.8669" style="stroke:#666666;stroke-width:1.0;"/><text fill="#666666" font-family="sans-serif" font-size="12" font-weight="bold" lengthAdjust="spacing" textLength="44" x="270" y="170.4355">Sends</text><text fill="#666666" font-family="sans-serif" font-size="12" font-weight="bold" lengthAdjust="spacing" textLength="4" x="314" y="170.4355">&#160;</text><text fill="#666666" font-family="sans-serif" font-size="12" font-weight="bold" lengthAdjust="spacing" textLength="79" x="318" y="170.4355">verification</text><text fill="#666666" font-family="sans-serif" font-size="12" font-weight="bold" lengthAdjust="spacing" textLength="34" x="316.5" y="184.4043">code</text></g><!--link ExISS to Bichard--><g id="link_ExISS_Bichard"><path d="M91.16,145.2969 C107.23,145.2969 126.88,145.2969 144.73,145.2969 " fill="none" id="ExISS-to-Bichard" style="stroke:#666666;stroke-width:1.0;"/><polygon fill="#666666" points="152.8,145.2969,144.8,142.2969,144.8,148.2969,152.8,145.2969" style="stroke:#666666;stroke-width:1.0;"/><text fill="#666666" font-family="sans-serif" font-size="0" lengthAdjust="spacing" textLength="0" x="122" y="134.2969">.</text></g><rect fill="none" height="16.2969" style="stroke:none;stroke-width:1.0;" width="245" x="287" y="275.4219"/><text fill="#000000" font-family="sans-serif" font-size="14" font-weight="bold" lengthAdjust="spacing" textLength="59" x="287" y="288.417">Legend</text><text fill="#FFFFFF" font-family="sans-serif" font-size="14" lengthAdjust="spacing" textLength="4" x="346" y="288.417">&#160;</text><rect fill="#1168BD" height="16.2969" style="stroke:none;stroke-width:1.0;" width="245" x="287" y="291.7188"/><text fill="#3C7FC0" font-family="sans-serif" font-size="14" lengthAdjust="spacing" textLength="8" x="291" y="304.7139">&#9647;</text><text fill="#FFFFFF" font-family="sans-serif" font-size="14" lengthAdjust="spacing" textLength="4" x="299" y="304.7139">&#160;</text><text fill="#FFFFFF" font-family="sans-serif" font-size="14" lengthAdjust="spacing" textLength="50" x="307" y="304.7139">system</text><text fill="#FFFFFF" font-family="sans-serif" font-size="14" lengthAdjust="spacing" textLength="4" x="361" y="304.7139">&#160;</text><rect fill="none" height="16.2969" style="stroke:none;stroke-width:1.0;" width="245" x="287" y="308.0156"/><text fill="#444444" font-family="sans-serif" font-size="14" lengthAdjust="spacing" textLength="8" x="291" y="321.0107">&#9647;</text><text fill="#FFFFFF" font-family="sans-serif" font-size="14" lengthAdjust="spacing" textLength="4" x="299" y="321.0107">&#160;</text><text fill="#444444" font-family="sans-serif" font-size="14" lengthAdjust="spacing" textLength="65" x="307" y="321.0107">boundary</text><text fill="#444444" font-family="sans-serif" font-size="10" lengthAdjust="spacing" textLength="43" x="376" y="321.9541">(dashed)</text><text fill="#FFFFFF" font-family="sans-serif" font-size="14" lengthAdjust="spacing" textLength="4" x="419" y="321.0107">&#160;</text><rect fill="#66622E" height="16.2969" style="stroke:none;stroke-width:1.0;" width="245" x="287" y="324.3125"/><text fill="#CCCCCC" font-family="sans-serif" font-size="14" lengthAdjust="spacing" textLength="8" x="291" y="337.3076">&#9647;</text><text fill="#FFFFFF" font-family="sans-serif" font-size="14" lengthAdjust="spacing" textLength="4" x="299" y="337.3076">&#160;</text><text fill="#CCCCCC" font-family="sans-serif" font-size="14" lengthAdjust="spacing" textLength="100" x="307" y="337.3076">CJSE boundary</text><text fill="#CCCCCC" font-family="sans-serif" font-size="10" lengthAdjust="spacing" textLength="117" x="411" y="338.251">(dashed, last back color)</text><text fill="#FFFFFF" font-family="sans-serif" font-size="14" lengthAdjust="spacing" textLength="4" x="528" y="337.3076">&#160;</text><line style="stroke:none;stroke-width:1.0;" x1="287" x2="532" y1="275.4219" y2="275.4219"/><line style="stroke:none;stroke-width:1.0;" x1="287" x2="532" y1="291.7188" y2="291.7188"/><line style="stroke:none;stroke-width:1.0;" x1="287" x2="532" y1="308.0156" y2="308.0156"/><line style="stroke:none;stroke-width:1.0;" x1="287" x2="532" y1="324.3125" y2="324.3125"/><line style="stroke:none;stroke-width:1.0;" x1="287" x2="532" y1="340.6094" y2="340.6094"/><line style="stroke:none;stroke-width:1.0;" x1="287" x2="287" y1="275.4219" y2="340.6094"/><line style="stroke:none;stroke-width:1.0;" x1="532" x2="532" y1="275.4219" y2="340.6094"/></g></svg>