<svg xmlns="http://www.w3.org/2000/svg" xmlns:xlink="http://www.w3.org/1999/xlink" contentStyleType="text/css" height="367px" preserveAspectRatio="none" style="width:564px;height:367px;background:#FFFFFF;" version="1.1" viewBox="0 0 564 367" width="564px" zoomAndPan="magnify"><title>Bichard - System Context</title><defs/><g><text fill="#000000" font-family="sans-serif" font-size="14" font-weight="bold" lengthAdjust="spacing" textLength="200.6279" x="174.686" y="22.9951">Bichard - System Context</text><!--cluster group_1--><g id="cluster_group_1"><rect fill="none" height="152" rx="2.5" ry="2.5" style="stroke:#CCCCCC;stroke-width:1.0;stroke-dasharray:7.0,7.0;" width="551" x="7" y="44.2969"/><text fill="#CCCCCC" font-family="sans-serif" font-size="16" font-weight="bold" lengthAdjust="spacing" textLength="40.1484" x="262.4258" y="61.1484">CJSE</text></g><!--entity Bichard--><g id="elem_Bichard"><rect fill="#1168BD" height="38.625" rx="2.5" ry="2.5" style="stroke:#3C7FC0;stroke-width:0.5;" width="88.6953" x="155" y="125.7969"/><text fill="#FFFFFF" font-family="sans-serif" font-size="16" font-weight="bold" lengthAdjust="spacing" textLength="68.6953" x="165" y="150.6484">Bichard</text></g><!--entity PSNProxy--><g id="elem_PSNProxy"><rect fill="#1168BD" height="71.2188" rx="2.5" ry="2.5" style="stroke:#3C7FC0;stroke-width:0.5;" width="113.5703" x="428" y="94.7969"/><text fill="#FFFFFF" font-family="sans-serif" font-size="16" font-weight="bold" lengthAdjust="spacing" textLength="36.6406" x="438" y="119.6484">PSN</text><text fill="#FFFFFF" font-family="sans-serif" font-size="16" font-weight="bold" lengthAdjust="spacing" textLength="5.5703" x="474.6406" y="119.6484">&#160;</text><text fill="#FFFFFF" font-family="sans-serif" font-size="16" font-weight="bold" lengthAdjust="spacing" textLength="51.3594" x="480.2109" y="119.6484">Proxy</text><text fill="#FFFFFF" font-family="sans-serif" font-size="14" lengthAdjust="spacing" textLength="4.4502" x="482.5601" y="136.417">&#160;</text><text fill="#FFFFFF" font-family="sans-serif" font-size="14" lengthAdjust="spacing" textLength="73.1035" x="448.2334" y="152.7139">Q-Solution</text></g><!--entity ExISS--><g id="elem_ExISS"><rect fill="#1168BD" height="38.625" rx="2.5" ry="2.5" style="stroke:#3C7FC0;stroke-width:0.5;" width="70.25" x="23" y="125.7969"/><text fill="#FFFFFF" font-family="sans-serif" font-size="16" font-weight="bold" lengthAdjust="spacing" textLength="50.25" x="33" y="150.6484">ExISS</text></g><!--entity CJSM--><g id="elem_CJSM"><rect fill="#1168BD" height="38.625" rx="2.5" ry="2.5" style="stroke:#3C7FC0;stroke-width:0.5;" width="65.1406" x="452.5" y="212.7969"/><text fill="#FFFFFF" font-family="sans-serif" font-size="16" font-weight="bold" lengthAdjust="spacing" textLength="45.1406" x="462.5" y="237.6484">CJSM</text></g><!--link Bichard to PSNProxy--><g id="link_Bichard_PSNProxy"><path d="M244.03,146.6769 C253.88,146.9369 264.3,147.1669 274,147.2969 C329.11,148.0469 343.15,152.6669 398,147.2969 C407.69,146.3469 410.0454,146.2176 419.9254,144.4476 " fill="none" id="Bichard-to-PSNProxy" style="stroke:#666666;stroke-width:1.0;"/><polygon fill="#666666" points="427.8,143.0369,419.3963,141.4946,420.4544,147.4006,427.8,143.0369" style="stroke:#666666;stroke-width:1.0;"/><text fill="#666666" font-family="sans-serif" font-size="0" lengthAdjust="spacing" textLength="0" x="336" y="136.2969">.</text></g><!--link PSNProxy to Bichard--><g id="link_PSNProxy_Bichard"><path d="M427.72,128.3169 C385.36,127.4269 325.92,127.4869 274,132.2969 C264.32,133.1969 261.8965,133.3341 252.1465,134.9941 " fill="none" id="PSNProxy-to-Bichard" style="stroke:#666666;stroke-width:1.0;"/><polygon fill="#666666" points="244.26,136.3369,252.65,137.9516,251.643,132.0367,244.26,136.3369" style="stroke:#666666;stroke-width:1.0;"/><text fill="#666666" font-family="sans-serif" font-size="0" lengthAdjust="spacing" textLength="0" x="336" y="117.2969">.</text></g><!--link Bichard to CJSM--><g id="link_Bichard_CJSM"><path d="M229.86,164.8469 C242.92,172.8069 258.76,181.4769 274,187.2969 C334.78,210.5269 402.3402,221.9392 444.2502,227.5292 " fill="none" id="Bichard-to-CJSM" style="stroke:#666666;stroke-width:1.0;"/><polygon fill="#666666" points="452.18,228.5869,444.6469,224.5555,443.8536,230.5029,452.18,228.5869" style="stroke:#666666;stroke-width:1.0;"/><text fill="#666666" font-family="sans-serif" font-size="12" font-weight="bold" lengthAdjust="spacing" textLength="41.0566" x="275" y="170.4355">Sends</text><text fill="#666666" font-family="sans-serif" font-size="12" font-weight="bold" lengthAdjust="spacing" textLength="4.1777" x="316.0566" y="170.4355">&#160;</text><text fill="#666666" font-family="sans-serif" font-size="12" font-weight="bold" lengthAdjust="spacing" textLength="77.1738" x="320.2344" y="170.4355">verification</text><text fill="#666666" font-family="sans-serif" font-size="12" font-weight="bold" lengthAdjust="spacing" textLength="32.0859" x="320.1611" y="184.4043">code</text></g><!--link ExISS to Bichard--><g id="link_ExISS_Bichard"><path d="M93.13,145.2969 C111.76,145.2969 127.03,145.2969 146.96,145.2969 " fill="none" id="ExISS-to-Bichard" style="stroke:#666666;stroke-width:1.0;"/><polygon fill="#666666" points="154.96,145.2969,146.96,142.2969,146.96,148.2969,154.96,145.2969" style="stroke:#666666;stroke-width:1.0;"/><text fill="#666666" font-family="sans-serif" font-size="0" lengthAdjust="spacing" textLength="0" x="124" y="134.2969">.</text></g><rect fill="none" height="16.2969" style="stroke:none;stroke-width:1.0;" width="256.2139" x="276.7861" y="275.4219"/><text fill="#000000" font-family="sans-serif" font-size="14" font-weight="bold" lengthAdjust="spacing" textLength="57.9209" x="276.7861" y="288.417">Legend</text><text fill="#FFFFFF" font-family="sans-serif" font-size="14" lengthAdjust="spacing" textLength="4.4502" x="334.707" y="288.417">&#160;</text><rect fill="#1168BD" height="16.2969" style="stroke:none;stroke-width:1.0;" width="256.2139" x="276.7861" y="291.7188"/><text fill="#3C7FC0" font-family="sans-serif" font-size="14" lengthAdjust="spacing" textLength="7.7041" x="281.2363" y="304.7139">&#9647;</text><text fill="#FFFFFF" font-family="sans-serif" font-size="14" lengthAdjust="spacing" textLength="4.4502" x="288.9404" y="304.7139">&#160;</text><text fill="#FFFFFF" font-family="sans-serif" font-size="14" lengthAdjust="spacing" textLength="50.6133" x="297.8408" y="304.7139">system</text><text fill="#FFFFFF" font-family="sans-serif" font-size="14" lengthAdjust="spacing" textLength="4.4502" x="352.9043" y="304.7139">&#160;</text><rect fill="none" height="16.2969" style="stroke:none;stroke-width:1.0;" width="256.2139" x="276.7861" y="308.0156"/><text fill="#444444" font-family="sans-serif" font-size="14" lengthAdjust="spacing" textLength="7.7041" x="281.2363" y="321.0107">&#9647;</text><text fill="#FFFFFF" font-family="sans-serif" font-size="14" lengthAdjust="spacing" textLength="4.4502" x="288.9404" y="321.0107">&#160;</text><text fill="#444444" font-family="sans-serif" font-size="14" lengthAdjust="spacing" textLength="66.7051" x="297.8408" y="321.0107">boundary</text><text fill="#444444" font-family="sans-serif" font-size="10" lengthAdjust="spacing" textLength="44.3262" x="368.9961" y="321.9541">(dashed)</text><text fill="#FFFFFF" font-family="sans-serif" font-size="14" lengthAdjust="spacing" textLength="4.4502" x="413.3223" y="321.0107">&#160;</text><rect fill="#66622E" height="16.2969" style="stroke:none;stroke-width:1.0;" width="256.2139" x="276.7861" y="324.3125"/><text fill="#CCCCCC" font-family="sans-serif" font-size="14" lengthAdjust="spacing" textLength="7.7041" x="281.2363" y="337.3076">&#9647;</text><text fill="#FFFFFF" font-family="sans-serif" font-size="14" lengthAdjust="spacing" textLength="4.4502" x="288.9404" y="337.3076">&#160;</text><text fill="#CCCCCC" font-family="sans-serif" font-size="14" lengthAdjust="spacing" textLength="102.792" x="297.8408" y="337.3076">CJSE boundary</text><text fill="#CCCCCC" font-family="sans-serif" font-size="10" lengthAdjust="spacing" textLength="123.4668" x="405.083" y="338.251">(last back color, dashed)</text><text fill="#FFFFFF" font-family="sans-serif" font-size="14" lengthAdjust="spacing" textLength="4.4502" x="528.5498" y="337.3076">&#160;</text><line style="stroke:none;stroke-width:1.0;" x1="276.7861" x2="533" y1="275.4219" y2="275.4219"/><line style="stroke:none;stroke-width:1.0;" x1="276.7861" x2="533" y1="291.7188" y2="291.7188"/><line style="stroke:none;stroke-width:1.0;" x1="276.7861" x2="533" y1="308.0156" y2="308.0156"/><line style="stroke:none;stroke-width:1.0;" x1="276.7861" x2="533" y1="324.3125" y2="324.3125"/><line style="stroke:none;stroke-width:1.0;" x1="276.7861" x2="533" y1="340.6094" y2="340.6094"/><line style="stroke:none;stroke-width:1.0;" x1="276.7861" x2="276.7861" y1="275.4219" y2="340.6094"/><line style="stroke:none;stroke-width:1.0;" x1="533" x2="533" y1="275.4219" y2="340.6094"/></g></svg>