<?xml version="1.0" encoding="us-ascii" standalone="no"?><svg xmlns="http://www.w3.org/2000/svg" xmlns:xlink="http://www.w3.org/1999/xlink" contentStyleType="text/css" height="525px" preserveAspectRatio="none" style="width:707px;height:525px;background:#FFFFFF;" version="1.1" viewBox="0 0 707 525" width="707px" zoomAndPan="magnify"><defs/><g><text fill="#000000" font-family="sans-serif" font-size="14" font-weight="bold" lengthAdjust="spacing" textLength="268" x="212.5" y="22.9951">Bichard - Reporting - Components</text><!--cluster Bichard.Reporting_boundary--><g id="cluster_Bichard.Reporting_boundary"><rect fill="none" height="365" rx="2.5" ry="2.5" style="stroke:#444444;stroke-width:1.0;stroke-dasharray:7.0,7.0;" width="221" x="7" y="44.2969"/><text fill="#444444" font-family="sans-serif" font-size="16" font-weight="bold" lengthAdjust="spacing" textLength="87" x="74" y="61.1484">Reporting</text><text fill="#444444" font-family="sans-serif" font-size="12" font-weight="bold" lengthAdjust="spacing" textLength="80" x="77.5" y="76.0605">[Container]</text></g><!--entity Bichard.Reporting.AutomationReport--><g id="elem_Bichard.Reporting.AutomationReport"><rect fill="#85BBF0" height="38.625" rx="2.5" ry="2.5" style="stroke:#78A8D8;stroke-width:0.5;" width="189" x="23" y="187.7969"/><text fill="#000000" font-family="sans-serif" font-size="16" font-weight="bold" lengthAdjust="spacing" textLength="102" x="33" y="212.6484">Automation</text><text fill="#000000" font-family="sans-serif" font-size="16" font-weight="bold" lengthAdjust="spacing" textLength="6" x="135" y="212.6484">&#160;</text><text fill="#000000" font-family="sans-serif" font-size="16" font-weight="bold" lengthAdjust="spacing" textLength="61" x="141" y="212.6484">Report</text></g><!--entity Bichard.Reporting.CommonPlatformReport--><g id="elem_Bichard.Reporting.CommonPlatformReport"><rect fill="#85BBF0" height="57.25" rx="2.5" ry="2.5" style="stroke:#78A8D8;stroke-width:0.5;" width="179" x="28" y="261.7969"/><text fill="#000000" font-family="sans-serif" font-size="16" font-weight="bold" lengthAdjust="spacing" textLength="77" x="38" y="286.6484">Common</text><text fill="#000000" font-family="sans-serif" font-size="16" font-weight="bold" lengthAdjust="spacing" textLength="6" x="115" y="286.6484">&#160;</text><text fill="#000000" font-family="sans-serif" font-size="16" font-weight="bold" lengthAdjust="spacing" textLength="76" x="121" y="286.6484">Platform</text><text fill="#000000" font-family="sans-serif" font-size="16" font-weight="bold" lengthAdjust="spacing" textLength="61" x="87" y="305.2734">Report</text></g><!--entity Bichard.Reporting.MPSReport--><g id="elem_Bichard.Reporting.MPSReport"><rect fill="#85BBF0" height="38.625" rx="2.5" ry="2.5" style="stroke:#78A8D8;stroke-width:0.5;" width="126" x="54.5" y="353.7969"/><text fill="#000000" font-family="sans-serif" font-size="16" font-weight="bold" lengthAdjust="spacing" textLength="39" x="64.5" y="378.6484">MPS</text><text fill="#000000" font-family="sans-serif" font-size="16" font-weight="bold" lengthAdjust="spacing" textLength="6" x="103.5" y="378.6484">&#160;</text><text fill="#000000" font-family="sans-serif" font-size="16" font-weight="bold" lengthAdjust="spacing" textLength="61" x="109.5" y="378.6484">Report</text></g><!--entity Bichard.Reporting.TopExceptionsReport--><g id="elem_Bichard.Reporting.TopExceptionsReport"><rect fill="#85BBF0" height="57.25" rx="2.5" ry="2.5" style="stroke:#78A8D8;stroke-width:0.5;" width="155" x="40" y="95.7969"/><text fill="#000000" font-family="sans-serif" font-size="16" font-weight="bold" lengthAdjust="spacing" textLength="33" x="50" y="120.6484">Top</text><text fill="#000000" font-family="sans-serif" font-size="16" font-weight="bold" lengthAdjust="spacing" textLength="6" x="83" y="120.6484">&#160;</text><text fill="#000000" font-family="sans-serif" font-size="16" font-weight="bold" lengthAdjust="spacing" textLength="96" x="89" y="120.6484">Exceptions</text><text fill="#000000" font-family="sans-serif" font-size="16" font-weight="bold" lengthAdjust="spacing" textLength="61" x="87" y="139.2734">Report</text></g><!--entity Bichard.BichardDatabase--><g id="elem_Bichard.BichardDatabase"><path d="M515,321.2969 C515,311.2969 602.5,311.2969 602.5,311.2969 C602.5,311.2969 690,311.2969 690,321.2969 L690,362.8906 C690,372.8906 602.5,372.8906 602.5,372.8906 C602.5,372.8906 515,372.8906 515,362.8906 L515,321.2969 " fill="#438DD5" style="stroke:#3C7FC0;stroke-width:0.5;"/><path d="M515,321.2969 C515,331.2969 602.5,331.2969 602.5,331.2969 C602.5,331.2969 690,331.2969 690,321.2969 " fill="none" style="stroke:#3C7FC0;stroke-width:0.5;"/><text fill="#FFFFFF" font-family="sans-serif" font-size="16" font-weight="bold" lengthAdjust="spacing" textLength="66" x="525" y="350.1484">Bichard</text><text fill="#FFFFFF" font-family="sans-serif" font-size="16" font-weight="bold" lengthAdjust="spacing" textLength="6" x="591" y="350.1484">&#160;</text><text fill="#FFFFFF" font-family="sans-serif" font-size="16" font-weight="bold" lengthAdjust="spacing" textLength="83" x="597" y="350.1484">Database</text><text fill="#FFFFFF" font-family="sans-serif" font-size="12" font-style="italic" lengthAdjust="spacing" textLength="82" x="561.5" y="365.0605">[PostgreSQL]</text></g><!--entity Bichard.EmailSystem--><g id="elem_Bichard.EmailSystem"><rect fill="#438DD5" height="52.5938" rx="2.5" ry="2.5" style="stroke:#3C7FC0;stroke-width:0.5;" width="136" x="296.5" y="296.7969"/><text fill="#FFFFFF" font-family="sans-serif" font-size="16" font-weight="bold" lengthAdjust="spacing" textLength="44" x="306.5" y="321.6484">Email</text><text fill="#FFFFFF" font-family="sans-serif" font-size="16" font-weight="bold" lengthAdjust="spacing" textLength="6" x="350.5" y="321.6484">&#160;</text><text fill="#FFFFFF" font-family="sans-serif" font-size="16" font-weight="bold" lengthAdjust="spacing" textLength="66" x="356.5" y="321.6484">System</text><text fill="#FFFFFF" font-family="sans-serif" font-size="12" font-style="italic" lengthAdjust="spacing" textLength="51" x="339" y="336.5605">[Postfix]</text></g><!--entity Bichard.AuditLog--><g id="elem_Bichard.AuditLog"><rect fill="#438DD5" height="38.625" rx="2.5" ry="2.5" style="stroke:#3C7FC0;stroke-width:0.5;" width="104" x="312.5" y="215.7969"/><text fill="#FFFFFF" font-family="sans-serif" font-size="16" font-weight="bold" lengthAdjust="spacing" textLength="46" x="322.5" y="240.6484">Audit</text><text fill="#FFFFFF" font-family="sans-serif" font-size="16" font-weight="bold" lengthAdjust="spacing" textLength="6" x="368.5" y="240.6484">&#160;</text><text fill="#FFFFFF" font-family="sans-serif" font-size="16" font-weight="bold" lengthAdjust="spacing" textLength="32" x="374.5" y="240.6484">Log</text></g><!--entity Bichard.StaticFileService--><g id="elem_Bichard.StaticFileService"><rect fill="#438DD5" height="38.625" rx="2.5" ry="2.5" style="stroke:#3C7FC0;stroke-width:0.5;" width="177" x="276" y="97.7969"/><text fill="#FFFFFF" font-family="sans-serif" font-size="16" font-weight="bold" lengthAdjust="spacing" textLength="51" x="286" y="122.6484">Static</text><text fill="#FFFFFF" font-family="sans-serif" font-size="16" font-weight="bold" lengthAdjust="spacing" textLength="6" x="337" y="122.6484">&#160;</text><text fill="#FFFFFF" font-family="sans-serif" font-size="16" font-weight="bold" lengthAdjust="spacing" textLength="29" x="343" y="122.6484">File</text><text fill="#FFFFFF" font-family="sans-serif" font-size="16" font-weight="bold" lengthAdjust="spacing" textLength="6" x="372" y="122.6484">&#160;</text><text fill="#FFFFFF" font-family="sans-serif" font-size="16" font-weight="bold" lengthAdjust="spacing" textLength="65" x="378" y="122.6484">Service</text></g><!--link Bichard.AuditLog to Bichard.BichardDatabase--><g id="link_Bichard.AuditLog_Bichard.BichardDatabase"><path d="M408.51,254.7969 C443.21,270.5269 485.3944,289.6523 525.5644,307.8723 " fill="none" id="Bichard.AuditLog-to-Bichard.BichardDatabase" style="stroke:#666666;stroke-width:1.0;"/><polygon fill="#666666" points="532.85,311.1769,526.8036,305.1402,524.3252,310.6044,532.85,311.1769" style="stroke:#666666;stroke-width:1.0;"/><text fill="#666666" font-family="sans-serif" font-size="0" lengthAdjust="spacing" textLength="0" x="484" y="277.2969">.</text></g><!--link Bichard.Reporting.AutomationReport to Bichard.AuditLog--><g id="link_Bichard.Reporting.AutomationReport_Bichard.AuditLog"><path d="M212.17,225.9369 C222.88,227.6269 233.65,229.1369 244,230.2969 C266.29,232.7969 283.0437,233.8351 304.2137,234.4751 " fill="none" id="Bichard.Reporting.AutomationReport-to-Bichard.AuditLog" style="stroke:#666666;stroke-width:1.0;"/><polygon fill="#666666" points="312.21,234.7169,304.3043,231.4765,304.123,237.4738,312.21,234.7169" style="stroke:#666666;stroke-width:1.0;"/><text fill="#666666" font-family="sans-serif" font-size="0" lengthAdjust="spacing" textLength="0" x="245" y="219.2969">.</text></g><!--link Bichard.Reporting.CommonPlatformReport to Bichard.AuditLog--><g id="link_Bichard.Reporting.CommonPlatformReport_Bichard.AuditLog"><path d="M207.3,270.3669 C242.63,262.4269 274.2143,255.3392 304.5943,248.5192 " fill="none" id="Bichard.Reporting.CommonPlatformReport-to-Bichard.AuditLog" style="stroke:#666666;stroke-width:1.0;"/><polygon fill="#666666" points="312.4,246.7669,303.9372,245.592,305.2514,251.4463,312.4,246.7669" style="stroke:#666666;stroke-width:1.0;"/><text fill="#666666" font-family="sans-serif" font-size="0" lengthAdjust="spacing" textLength="0" x="245" y="250.2969">.</text></g><!--link Bichard.Reporting.AutomationReport to Bichard.StaticFileService--><g id="link_Bichard.Reporting.AutomationReport_Bichard.StaticFileService"><path d="M212.26,188.8669 C223.76,185.7569 235.24,182.2369 246,178.2969 C276,167.3069 301.1289,154.2619 324.1689,140.9819 " fill="none" id="Bichard.Reporting.AutomationReport-to-Bichard.StaticFileService" style="stroke:#666666;stroke-width:1.0;"/><polygon fill="#666666" points="331.1,136.9869,322.6708,138.3827,325.667,143.581,331.1,136.9869" style="stroke:#666666;stroke-width:1.0;"/><text fill="#666666" font-family="sans-serif" font-size="0" lengthAdjust="spacing" textLength="0" x="245" y="167.2969">.</text></g><!--link Bichard.Reporting.TopExceptionsReport to Bichard.StaticFileService--><g id="link_Bichard.Reporting.TopExceptionsReport_Bichard.StaticFileService"><path d="M195.24,113.2869 C211.94,111.7869 229.54,110.8769 246,111.2969 C255.7,111.5469 257.8472,111.5666 267.9472,111.9966 " fill="none" id="Bichard.Reporting.TopExceptionsReport-to-Bichard.StaticFileService" style="stroke:#666666;stroke-width:1.0;"/><polygon fill="#666666" points="275.94,112.3369,268.0748,108.9993,267.8196,114.9939,275.94,112.3369" style="stroke:#666666;stroke-width:1.0;"/><text fill="#666666" font-family="sans-serif" font-size="0" lengthAdjust="spacing" textLength="0" x="245" y="100.2969">.</text></g><!--link Bichard.Reporting.CommonPlatformReport to Bichard.EmailSystem--><g id="link_Bichard.Reporting.CommonPlatformReport_Bichard.EmailSystem"><path d="M186.77,318.8969 C205.04,325.2569 224.99,331.0569 244,334.2969 C260.84,337.1669 271.189,337.747 288.299,336.287 " fill="none" id="Bichard.Reporting.CommonPlatformReport-to-Bichard.EmailSystem" style="stroke:#666666;stroke-width:1.0;"/><polygon fill="#666666" points="296.27,335.6069,288.0439,333.2979,288.554,339.2762,296.27,335.6069" style="stroke:#666666;stroke-width:1.0;"/><text fill="#666666" font-family="sans-serif" font-size="0" lengthAdjust="spacing" textLength="0" x="245" y="323.2969">.</text></g><!--link Bichard.Reporting.MPSReport to Bichard.BichardDatabase--><g id="link_Bichard.Reporting.MPSReport_Bichard.BichardDatabase"><path d="M180.73,379.5869 C248.1,385.1869 358.6,390.8769 453,379.2969 C473.17,376.8169 486.7705,374.3822 506.8305,369.5722 " fill="none" id="Bichard.Reporting.MPSReport-to-Bichard.BichardDatabase" style="stroke:#666666;stroke-width:1.0;"/><polygon fill="#666666" points="514.61,367.7069,506.131,366.6549,507.53,372.4896,514.61,367.7069" style="stroke:#666666;stroke-width:1.0;"/><text fill="#666666" font-family="sans-serif" font-size="0" lengthAdjust="spacing" textLength="0" x="364.5" y="368.2969">.</text></g><!--link Bichard.Reporting.TopExceptionsReport to Bichard.AuditLog--><g id="link_Bichard.Reporting.TopExceptionsReport_Bichard.AuditLog"><path d="M195.17,144.3069 C212.21,149.6969 229.96,156.0669 246,163.2969 C278.5,177.9369 306.3659,195.4119 329.5059,211.2319 " fill="none" id="Bichard.Reporting.TopExceptionsReport-to-Bichard.AuditLog" style="stroke:#666666;stroke-width:1.0;"/><polygon fill="#666666" points="336.11,215.7469,331.199,208.7553,327.8127,213.7084,336.11,215.7469" style="stroke:#666666;stroke-width:1.0;"/><text fill="#666666" font-family="sans-serif" font-size="0" lengthAdjust="spacing" textLength="0" x="245" y="152.2969">.</text></g><rect fill="none" height="16.2969" style="stroke:none;stroke-width:1.0;" width="205" x="471" y="433.2969"/><text fill="#000000" font-family="sans-serif" font-size="14" font-weight="bold" lengthAdjust="spacing" textLength="59" x="471" y="446.292">Legend</text><text fill="#FFFFFF" font-family="sans-serif" font-size="14" lengthAdjust="spacing" textLength="4" x="530" y="446.292">&#160;</text><rect fill="#438DD5" height="16.2969" style="stroke:none;stroke-width:1.0;" width="205" x="471" y="449.5938"/><text fill="#3C7FC0" font-family="sans-serif" font-size="14" lengthAdjust="spacing" textLength="8" x="475" y="462.5889">&#9647;</text><text fill="#FFFFFF" font-family="sans-serif" font-size="14" lengthAdjust="spacing" textLength="4" x="483" y="462.5889">&#160;</text><text fill="#FFFFFF" font-family="sans-serif" font-size="14" lengthAdjust="spacing" textLength="65" x="491" y="462.5889">container</text><text fill="#FFFFFF" font-family="sans-serif" font-size="14" lengthAdjust="spacing" textLength="4" x="560" y="462.5889">&#160;</text><rect fill="#85BBF0" height="16.2969" style="stroke:none;stroke-width:1.0;" width="205" x="471" y="465.8906"/><text fill="#78A8D8" font-family="sans-serif" font-size="14" lengthAdjust="spacing" textLength="8" x="475" y="478.8857">&#9647;</text><text fill="#FFFFFF" font-family="sans-serif" font-size="14" lengthAdjust="spacing" textLength="4" x="483" y="478.8857">&#160;</text><text fill="#000000" font-family="sans-serif" font-size="14" lengthAdjust="spacing" textLength="80" x="491" y="478.8857">component</text><text fill="#FFFFFF" font-family="sans-serif" font-size="14" lengthAdjust="spacing" textLength="4" x="575" y="478.8857">&#160;</text><rect fill="none" height="16.2969" style="stroke:none;stroke-width:1.0;" width="205" x="471" y="482.1875"/><text fill="#444444" font-family="sans-serif" font-size="14" lengthAdjust="spacing" textLength="8" x="475" y="495.1826">&#9647;</text><text fill="#FFFFFF" font-family="sans-serif" font-size="14" lengthAdjust="spacing" textLength="4" x="483" y="495.1826">&#160;</text><text fill="#444444" font-family="sans-serif" font-size="14" lengthAdjust="spacing" textLength="134" x="491" y="495.1826">container boundary</text><text fill="#444444" font-family="sans-serif" font-size="10" lengthAdjust="spacing" textLength="43" x="629" y="496.126">(dashed)</text><text fill="#FFFFFF" font-family="sans-serif" font-size="14" lengthAdjust="spacing" textLength="4" x="672" y="495.1826">&#160;</text><line style="stroke:none;stroke-width:1.0;" x1="471" x2="676" y1="433.2969" y2="433.2969"/><line style="stroke:none;stroke-width:1.0;" x1="471" x2="676" y1="449.5938" y2="449.5938"/><line style="stroke:none;stroke-width:1.0;" x1="471" x2="676" y1="465.8906" y2="465.8906"/><line style="stroke:none;stroke-width:1.0;" x1="471" x2="676" y1="482.1875" y2="482.1875"/><line style="stroke:none;stroke-width:1.0;" x1="471" x2="676" y1="498.4844" y2="498.4844"/><line style="stroke:none;stroke-width:1.0;" x1="471" x2="471" y1="433.2969" y2="498.4844"/><line style="stroke:none;stroke-width:1.0;" x1="676" x2="676" y1="433.2969" y2="498.4844"/></g></svg>