<?xml version="1.0" encoding="us-ascii" standalone="no"?><svg xmlns="http://www.w3.org/2000/svg" xmlns:xlink="http://www.w3.org/1999/xlink" contentStyleType="text/css" height="1292px" preserveAspectRatio="none" style="width:981px;height:1292px;background:#FFFFFF;" version="1.1" viewBox="0 0 981 1292" width="981px" zoomAndPan="magnify"><defs/><g><text fill="#000000" font-family="sans-serif" font-size="14" font-weight="bold" lengthAdjust="spacing" textLength="90" x="438.75" y="22.9951">Old Bichard</text><!--cluster Bichard_boundary--><g id="cluster_Bichard_boundary"><rect fill="none" height="1035" rx="2.5" ry="2.5" style="stroke:#444444;stroke-width:1.0;stroke-dasharray:7.0,7.0;" width="839" x="7" y="141.2969"/><text fill="#444444" font-family="sans-serif" font-size="16" font-weight="bold" lengthAdjust="spacing" textLength="66" x="393.5" y="158.1484">Bichard</text><text fill="#444444" font-family="sans-serif" font-size="12" font-weight="bold" lengthAdjust="spacing" textLength="62" x="395.5" y="173.0605">[System]</text></g><!--entity Bichard.Beanconnect--><g id="elem_Bichard.Beanconnect"><rect fill="#438DD5" height="38.625" rx="2.5" ry="2.5" style="stroke:#3C7FC0;stroke-width:0.5;" width="136" x="682" y="471.2969"/><text fill="#FFFFFF" font-family="sans-serif" font-size="16" font-weight="bold" lengthAdjust="spacing" textLength="116" x="692" y="496.1484">Beanconnect</text></g><!--entity Bichard.MessageTransferLambda--><g id="elem_Bichard.MessageTransferLambda"><rect fill="#438DD5" height="57.25" rx="2.5" ry="2.5" style="stroke:#3C7FC0;stroke-width:0.5;" width="181" x="40.5" y="192.2969"/><text fill="#FFFFFF" font-family="sans-serif" font-size="16" font-weight="bold" lengthAdjust="spacing" textLength="79" x="50.5" y="217.1484">Message</text><text fill="#FFFFFF" font-family="sans-serif" font-size="16" font-weight="bold" lengthAdjust="spacing" textLength="6" x="129.5" y="217.1484">&#160;</text><text fill="#FFFFFF" font-family="sans-serif" font-size="16" font-weight="bold" lengthAdjust="spacing" textLength="76" x="135.5" y="217.1484">Transfer</text><text fill="#FFFFFF" font-family="sans-serif" font-size="16" font-weight="bold" lengthAdjust="spacing" textLength="68" x="97" y="235.7734">Lambda</text></g><!--entity Bichard.IncomingMessageHandlerStepFunction--><g id="elem_Bichard.IncomingMessageHandlerStepFunction"><rect fill="#438DD5" height="57.25" rx="2.5" ry="2.5" style="stroke:#3C7FC0;stroke-width:0.5;" width="216" x="23" y="328.2969"/><text fill="#FFFFFF" font-family="sans-serif" font-size="16" font-weight="bold" lengthAdjust="spacing" textLength="80" x="48.5" y="353.1484">Incoming</text><text fill="#FFFFFF" font-family="sans-serif" font-size="16" font-weight="bold" lengthAdjust="spacing" textLength="6" x="128.5" y="353.1484">&#160;</text><text fill="#FFFFFF" font-family="sans-serif" font-size="16" font-weight="bold" lengthAdjust="spacing" textLength="79" x="134.5" y="353.1484">Message</text><text fill="#FFFFFF" font-family="sans-serif" font-size="16" font-weight="bold" lengthAdjust="spacing" textLength="67" x="33" y="371.7734">Handler</text><text fill="#FFFFFF" font-family="sans-serif" font-size="16" font-weight="bold" lengthAdjust="spacing" textLength="6" x="100" y="371.7734">&#160;</text><text fill="#FFFFFF" font-family="sans-serif" font-size="16" font-weight="bold" lengthAdjust="spacing" textLength="41" x="106" y="371.7734">Step</text><text fill="#FFFFFF" font-family="sans-serif" font-size="16" font-weight="bold" lengthAdjust="spacing" textLength="6" x="147" y="371.7734">&#160;</text><text fill="#FFFFFF" font-family="sans-serif" font-size="16" font-weight="bold" lengthAdjust="spacing" textLength="76" x="153" y="371.7734">Function</text></g><!--entity Bichard.EventLambda--><g id="elem_Bichard.EventLambda"><rect fill="#438DD5" height="38.625" rx="2.5" ry="2.5" style="stroke:#3C7FC0;stroke-width:0.5;" width="144" x="101" y="605.2969"/><text fill="#FFFFFF" font-family="sans-serif" font-size="16" font-weight="bold" lengthAdjust="spacing" textLength="50" x="111" y="630.1484">Event</text><text fill="#FFFFFF" font-family="sans-serif" font-size="16" font-weight="bold" lengthAdjust="spacing" textLength="6" x="161" y="630.1484">&#160;</text><text fill="#FFFFFF" font-family="sans-serif" font-size="16" font-weight="bold" lengthAdjust="spacing" textLength="68" x="167" y="630.1484">Lambda</text></g><!--entity Bichard.EventHandlerStepFunction--><g id="elem_Bichard.EventHandlerStepFunction"><rect fill="#438DD5" height="57.25" rx="2.5" ry="2.5" style="stroke:#3C7FC0;stroke-width:0.5;" width="190" x="60" y="779.7969"/><text fill="#FFFFFF" font-family="sans-serif" font-size="16" font-weight="bold" lengthAdjust="spacing" textLength="50" x="70" y="804.6484">Event</text><text fill="#FFFFFF" font-family="sans-serif" font-size="16" font-weight="bold" lengthAdjust="spacing" textLength="6" x="120" y="804.6484">&#160;</text><text fill="#FFFFFF" font-family="sans-serif" font-size="16" font-weight="bold" lengthAdjust="spacing" textLength="67" x="126" y="804.6484">Handler</text><text fill="#FFFFFF" font-family="sans-serif" font-size="16" font-weight="bold" lengthAdjust="spacing" textLength="6" x="193" y="804.6484">&#160;</text><text fill="#FFFFFF" font-family="sans-serif" font-size="16" font-weight="bold" lengthAdjust="spacing" textLength="41" x="199" y="804.6484">Step</text><text fill="#FFFFFF" font-family="sans-serif" font-size="16" font-weight="bold" lengthAdjust="spacing" textLength="76" x="117" y="823.2734">Function</text></g><!--entity Bichard.ActiveMQ--><g id="elem_Bichard.ActiveMQ"><rect fill="#438DD5" height="52.5938" rx="2.5" ry="2.5" style="stroke:#3C7FC0;stroke-width:0.5;" width="111" x="180.5" y="464.2969"/><text fill="#FFFFFF" font-family="sans-serif" font-size="16" font-weight="bold" lengthAdjust="spacing" textLength="55" x="190.5" y="489.1484">Active</text><text fill="#FFFFFF" font-family="sans-serif" font-size="16" font-weight="bold" lengthAdjust="spacing" textLength="6" x="245.5" y="489.1484">&#160;</text><text fill="#FFFFFF" font-family="sans-serif" font-size="16" font-weight="bold" lengthAdjust="spacing" textLength="30" x="251.5" y="489.1484">MQ</text><text fill="#FFFFFF" font-family="sans-serif" font-size="12" font-style="italic" lengthAdjust="spacing" textLength="42" x="201" y="504.0605">[Active</text><text fill="#FFFFFF" font-family="sans-serif" font-size="12" font-style="italic" lengthAdjust="spacing" textLength="4" x="243" y="504.0605">&#160;</text><text fill="#FFFFFF" font-family="sans-serif" font-size="12" font-style="italic" lengthAdjust="spacing" textLength="24" x="247" y="504.0605">MQ]</text></g><!--entity Bichard.NginxAuthProxy--><g id="elem_Bichard.NginxAuthProxy"><rect fill="#438DD5" height="52.5938" rx="2.5" ry="2.5" style="stroke:#3C7FC0;stroke-width:0.5;" width="174" x="471" y="194.2969"/><text fill="#FFFFFF" font-family="sans-serif" font-size="16" font-weight="bold" lengthAdjust="spacing" textLength="49" x="481" y="219.1484">Nginx</text><text fill="#FFFFFF" font-family="sans-serif" font-size="16" font-weight="bold" lengthAdjust="spacing" textLength="6" x="530" y="219.1484">&#160;</text><text fill="#FFFFFF" font-family="sans-serif" font-size="16" font-weight="bold" lengthAdjust="spacing" textLength="42" x="536" y="219.1484">Auth</text><text fill="#FFFFFF" font-family="sans-serif" font-size="16" font-weight="bold" lengthAdjust="spacing" textLength="6" x="578" y="219.1484">&#160;</text><text fill="#FFFFFF" font-family="sans-serif" font-size="16" font-weight="bold" lengthAdjust="spacing" textLength="51" x="584" y="219.1484">Proxy</text><text fill="#FFFFFF" font-family="sans-serif" font-size="12" font-style="italic" lengthAdjust="spacing" textLength="44" x="536" y="234.0605">[Nginx]</text></g><!--entity Bichard.BichardDatabase--><g id="elem_Bichard.BichardDatabase"><path d="M111.5,1108.2969 C111.5,1098.2969 199,1098.2969 199,1098.2969 C199,1098.2969 286.5,1098.2969 286.5,1108.2969 L286.5,1149.8906 C286.5,1159.8906 199,1159.8906 199,1159.8906 C199,1159.8906 111.5,1159.8906 111.5,1149.8906 L111.5,1108.2969 " fill="#438DD5" style="stroke:#3C7FC0;stroke-width:0.5;"/><path d="M111.5,1108.2969 C111.5,1118.2969 199,1118.2969 199,1118.2969 C199,1118.2969 286.5,1118.2969 286.5,1108.2969 " fill="none" style="stroke:#3C7FC0;stroke-width:0.5;"/><text fill="#FFFFFF" font-family="sans-serif" font-size="16" font-weight="bold" lengthAdjust="spacing" textLength="66" x="121.5" y="1137.1484">Bichard</text><text fill="#FFFFFF" font-family="sans-serif" font-size="16" font-weight="bold" lengthAdjust="spacing" textLength="6" x="187.5" y="1137.1484">&#160;</text><text fill="#FFFFFF" font-family="sans-serif" font-size="16" font-weight="bold" lengthAdjust="spacing" textLength="83" x="193.5" y="1137.1484">Database</text><text fill="#FFFFFF" font-family="sans-serif" font-size="12" font-style="italic" lengthAdjust="spacing" textLength="82" x="158" y="1152.0605">[PostgreSQL]</text></g><!--entity Bichard.EmailSystem--><g id="elem_Bichard.EmailSystem"><rect fill="#438DD5" height="52.5938" rx="2.5" ry="2.5" style="stroke:#3C7FC0;stroke-width:0.5;" width="136" x="483" y="956.2969"/><text fill="#FFFFFF" font-family="sans-serif" font-size="16" font-weight="bold" lengthAdjust="spacing" textLength="44" x="493" y="981.1484">Email</text><text fill="#FFFFFF" font-family="sans-serif" font-size="16" font-weight="bold" lengthAdjust="spacing" textLength="6" x="537" y="981.1484">&#160;</text><text fill="#FFFFFF" font-family="sans-serif" font-size="16" font-weight="bold" lengthAdjust="spacing" textLength="66" x="543" y="981.1484">System</text><text fill="#FFFFFF" font-family="sans-serif" font-size="12" font-style="italic" lengthAdjust="spacing" textLength="51" x="525.5" y="996.0605">[Postfix]</text></g><!--entity Bichard.BichardJavaApplication--><g id="elem_Bichard.BichardJavaApplication"><rect fill="#438DD5" height="71.2188" rx="2.5" ry="2.5" style="stroke:#3C7FC0;stroke-width:0.5;" width="128" x="274" y="321.2969"/><text fill="#FFFFFF" font-family="sans-serif" font-size="16" font-weight="bold" lengthAdjust="spacing" textLength="66" x="284" y="346.1484">Bichard</text><text fill="#FFFFFF" font-family="sans-serif" font-size="16" font-weight="bold" lengthAdjust="spacing" textLength="6" x="350" y="346.1484">&#160;</text><text fill="#FFFFFF" font-family="sans-serif" font-size="16" font-weight="bold" lengthAdjust="spacing" textLength="36" x="356" y="346.1484">Java</text><text fill="#FFFFFF" font-family="sans-serif" font-size="16" font-weight="bold" lengthAdjust="spacing" textLength="96" x="290" y="364.7734">Application</text><text fill="#FFFFFF" font-family="sans-serif" font-size="12" font-style="italic" lengthAdjust="spacing" textLength="30" x="310.5" y="379.6855">[Java</text><text fill="#FFFFFF" font-family="sans-serif" font-size="12" font-style="italic" lengthAdjust="spacing" textLength="4" x="340.5" y="379.6855">&#160;</text><text fill="#FFFFFF" font-family="sans-serif" font-size="12" font-style="italic" lengthAdjust="spacing" textLength="21" x="344.5" y="379.6855">EE]</text></g><!--entity Bichard.BichardUserService--><g id="elem_Bichard.BichardUserService"><rect fill="#438DD5" height="117.7813" rx="2.5" ry="2.5" style="stroke:#3C7FC0;stroke-width:0.5;" width="219" x="539.5" y="749.2969"/><text fill="#FFFFFF" font-family="sans-serif" font-size="16" font-weight="bold" lengthAdjust="spacing" textLength="66" x="557" y="774.1484">Bichard</text><text fill="#FFFFFF" font-family="sans-serif" font-size="16" font-weight="bold" lengthAdjust="spacing" textLength="6" x="623" y="774.1484">&#160;</text><text fill="#FFFFFF" font-family="sans-serif" font-size="16" font-weight="bold" lengthAdjust="spacing" textLength="41" x="629" y="774.1484">User</text><text fill="#FFFFFF" font-family="sans-serif" font-size="16" font-weight="bold" lengthAdjust="spacing" textLength="6" x="670" y="774.1484">&#160;</text><text fill="#FFFFFF" font-family="sans-serif" font-size="16" font-weight="bold" lengthAdjust="spacing" textLength="65" x="676" y="774.1484">Service</text><text fill="#FFFFFF" font-family="sans-serif" font-size="12" font-style="italic" lengthAdjust="spacing" textLength="51" x="559.5" y="789.0605">[Next.js,</text><text fill="#FFFFFF" font-family="sans-serif" font-size="12" font-style="italic" lengthAdjust="spacing" textLength="4" x="610.5" y="789.0605">&#160;</text><text fill="#FFFFFF" font-family="sans-serif" font-size="12" font-style="italic" lengthAdjust="spacing" textLength="65" x="614.5" y="789.0605">TypeScript</text><text fill="#FFFFFF" font-family="sans-serif" font-size="12" font-style="italic" lengthAdjust="spacing" textLength="4" x="679.5" y="789.0605">&#160;</text><text fill="#FFFFFF" font-family="sans-serif" font-size="12" font-style="italic" lengthAdjust="spacing" textLength="10" x="683.5" y="789.0605">&amp;</text><text fill="#FFFFFF" font-family="sans-serif" font-size="12" font-style="italic" lengthAdjust="spacing" textLength="4" x="693.5" y="789.0605">&#160;</text><text fill="#FFFFFF" font-family="sans-serif" font-size="12" font-style="italic" lengthAdjust="spacing" textLength="41" x="697.5" y="789.0605">React]</text><text fill="#FFFFFF" font-family="sans-serif" font-size="14" lengthAdjust="spacing" textLength="4" x="647" y="804.8857">&#160;</text><text fill="#FFFFFF" font-family="sans-serif" font-size="14" lengthAdjust="spacing" textLength="18" x="564.5" y="821.1826">An</text><text fill="#FFFFFF" font-family="sans-serif" font-size="14" lengthAdjust="spacing" textLength="4" x="582.5" y="821.1826">&#160;</text><text fill="#FFFFFF" font-family="sans-serif" font-size="14" lengthAdjust="spacing" textLength="74" x="586.5" y="821.1826">application</text><text fill="#FFFFFF" font-family="sans-serif" font-size="14" lengthAdjust="spacing" textLength="4" x="660.5" y="821.1826">&#160;</text><text fill="#FFFFFF" font-family="sans-serif" font-size="14" lengthAdjust="spacing" textLength="14" x="664.5" y="821.1826">to</text><text fill="#FFFFFF" font-family="sans-serif" font-size="14" lengthAdjust="spacing" textLength="4" x="678.5" y="821.1826">&#160;</text><text fill="#FFFFFF" font-family="sans-serif" font-size="14" lengthAdjust="spacing" textLength="51" x="682.5" y="821.1826">provide</text><text fill="#FFFFFF" font-family="sans-serif" font-size="14" lengthAdjust="spacing" textLength="31" x="549.5" y="837.4795">user</text><text fill="#FFFFFF" font-family="sans-serif" font-size="14" lengthAdjust="spacing" textLength="4" x="580.5" y="837.4795">&#160;</text><text fill="#FFFFFF" font-family="sans-serif" font-size="14" lengthAdjust="spacing" textLength="99" x="584.5" y="837.4795">authentication</text><text fill="#FFFFFF" font-family="sans-serif" font-size="14" lengthAdjust="spacing" textLength="4" x="683.5" y="837.4795">&#160;</text><text fill="#FFFFFF" font-family="sans-serif" font-size="14" lengthAdjust="spacing" textLength="26" x="687.5" y="837.4795">and</text><text fill="#FFFFFF" font-family="sans-serif" font-size="14" lengthAdjust="spacing" textLength="4" x="713.5" y="837.4795">&#160;</text><text fill="#FFFFFF" font-family="sans-serif" font-size="14" lengthAdjust="spacing" textLength="31" x="717.5" y="837.4795">user</text><text fill="#FFFFFF" font-family="sans-serif" font-size="14" lengthAdjust="spacing" textLength="92" x="603" y="853.7764">management</text></g><!--entity Bichard.AuditLog--><g id="elem_Bichard.AuditLog"><rect fill="#438DD5" height="38.625" rx="2.5" ry="2.5" style="stroke:#3C7FC0;stroke-width:0.5;" width="104" x="23" y="963.2969"/><text fill="#FFFFFF" font-family="sans-serif" font-size="16" font-weight="bold" lengthAdjust="spacing" textLength="46" x="33" y="988.1484">Audit</text><text fill="#FFFFFF" font-family="sans-serif" font-size="16" font-weight="bold" lengthAdjust="spacing" textLength="6" x="79" y="988.1484">&#160;</text><text fill="#FFFFFF" font-family="sans-serif" font-size="16" font-weight="bold" lengthAdjust="spacing" textLength="32" x="85" y="988.1484">Log</text></g><!--entity Bichard.StaticFileService--><g id="elem_Bichard.StaticFileService"><rect fill="#438DD5" height="38.625" rx="2.5" ry="2.5" style="stroke:#3C7FC0;stroke-width:0.5;" width="177" x="270.5" y="963.2969"/><text fill="#FFFFFF" font-family="sans-serif" font-size="16" font-weight="bold" lengthAdjust="spacing" textLength="51" x="280.5" y="988.1484">Static</text><text fill="#FFFFFF" font-family="sans-serif" font-size="16" font-weight="bold" lengthAdjust="spacing" textLength="6" x="331.5" y="988.1484">&#160;</text><text fill="#FFFFFF" font-family="sans-serif" font-size="16" font-weight="bold" lengthAdjust="spacing" textLength="29" x="337.5" y="988.1484">File</text><text fill="#FFFFFF" font-family="sans-serif" font-size="16" font-weight="bold" lengthAdjust="spacing" textLength="6" x="366.5" y="988.1484">&#160;</text><text fill="#FFFFFF" font-family="sans-serif" font-size="16" font-weight="bold" lengthAdjust="spacing" textLength="65" x="372.5" y="988.1484">Service</text></g><!--entity Bichard.Reporting--><g id="elem_Bichard.Reporting"><rect fill="#438DD5" height="38.625" rx="2.5" ry="2.5" style="stroke:#3C7FC0;stroke-width:0.5;" width="107" x="359.5" y="788.7969"/><text fill="#FFFFFF" font-family="sans-serif" font-size="16" font-weight="bold" lengthAdjust="spacing" textLength="87" x="369.5" y="813.6484">Reporting</text></g><!--entity Bichard.Monitoring--><g id="elem_Bichard.Monitoring"><rect fill="#438DD5" height="38.625" rx="2.5" ry="2.5" style="stroke:#3C7FC0;stroke-width:0.5;" width="115" x="280.5" y="201.2969"/><text fill="#FFFFFF" font-family="sans-serif" font-size="16" font-weight="bold" lengthAdjust="spacing" textLength="95" x="290.5" y="226.1484">Monitoring</text></g><!--entity CJSM--><g id="elem_CJSM"><rect fill="#1168BD" height="38.625" rx="2.5" ry="2.5" style="stroke:#3C7FC0;stroke-width:0.5;" width="65" x="862.5" y="1109.7969"/><text fill="#FFFFFF" font-family="sans-serif" font-size="16" font-weight="bold" lengthAdjust="spacing" textLength="45" x="872.5" y="1134.6484">CJSM</text></g><!--entity PSNProxy--><g id="elem_PSNProxy"><rect fill="#1168BD" height="71.2188" rx="2.5" ry="2.5" style="stroke:#3C7FC0;stroke-width:0.5;" width="113" x="862.5" y="589.2969"/><text fill="#FFFFFF" font-family="sans-serif" font-size="16" font-weight="bold" lengthAdjust="spacing" textLength="36" x="872.5" y="614.1484">PSN</text><text fill="#FFFFFF" font-family="sans-serif" font-size="16" font-weight="bold" lengthAdjust="spacing" textLength="6" x="908.5" y="614.1484">&#160;</text><text fill="#FFFFFF" font-family="sans-serif" font-size="16" font-weight="bold" lengthAdjust="spacing" textLength="51" x="914.5" y="614.1484">Proxy</text><text fill="#FFFFFF" font-family="sans-serif" font-size="14" lengthAdjust="spacing" textLength="4" x="917" y="630.917">&#160;</text><text fill="#FFFFFF" font-family="sans-serif" font-size="14" lengthAdjust="spacing" textLength="72" x="883" y="647.2139">Q-Solution</text></g><!--entity ExISS--><g id="elem_ExISS"><rect fill="#1168BD" height="38.625" rx="2.5" ry="2.5" style="stroke:#3C7FC0;stroke-width:0.5;" width="68" x="97" y="44.2969"/><text fill="#FFFFFF" font-family="sans-serif" font-size="16" font-weight="bold" lengthAdjust="spacing" textLength="48" x="107" y="69.1484">ExISS</text></g><!--link Bichard.AuditLog to Bichard.BichardDatabase--><g id="link_Bichard.AuditLog_Bichard.BichardDatabase"><path d="M90.96,1002.3969 C111.76,1026.6269 143.1906,1063.2555 167.9706,1092.1355 " fill="none" id="Bichard.AuditLog-to-Bichard.BichardDatabase" style="stroke:#666666;stroke-width:1.0;"/><polygon fill="#666666" points="173.18,1098.2069,170.2473,1090.182,165.6938,1094.089,173.18,1098.2069" style="stroke:#666666;stroke-width:1.0;"/><text fill="#666666" font-family="sans-serif" font-size="0" lengthAdjust="spacing" textLength="0" x="145" y="1048.7969">.</text></g><!--link Bichard.AuditLog to Bichard.ActiveMQ--><g id="link_Bichard.AuditLog_Bichard.ActiveMQ"><path d="M110.54,963.1869 C163.83,934.9269 259.16,882.8269 268,867.2969 C329.15,759.9169 281.55,711.4769 263,589.2969 C259.23,564.4669 253.7222,544.5653 247.4022,525.1153 " fill="none" id="Bichard.AuditLog-to-Bichard.ActiveMQ" style="stroke:#666666;stroke-width:1.0;"/><polygon fill="#666666" points="244.93,517.5069,244.5491,526.0424,250.2554,524.1882,244.93,517.5069" style="stroke:#666666;stroke-width:1.0;"/><text fill="#666666" font-family="sans-serif" font-size="0" lengthAdjust="spacing" textLength="0" x="293" y="699.7969">.</text></g><!--link Bichard.Reporting to Bichard.AuditLog--><g id="link_Bichard.Reporting_Bichard.AuditLog"><path d="M384.7,827.8369 C335.81,859.8269 239.98,922.3769 232,926.2969 C198.27,942.8769 165.9401,954.5223 134.7801,964.3423 " fill="none" id="Bichard.Reporting-to-Bichard.AuditLog" style="stroke:#666666;stroke-width:1.0;"/><polygon fill="#666666" points="127.15,966.7469,135.6818,967.2036,133.8783,961.481,127.15,966.7469" style="stroke:#666666;stroke-width:1.0;"/><text fill="#666666" font-family="sans-serif" font-size="0" lengthAdjust="spacing" textLength="0" x="276" y="906.7969">.</text></g><!--link Bichard.Reporting to Bichard.StaticFileService--><g id="link_Bichard.Reporting_Bichard.StaticFileService"><path d="M407.12,828.0869 C396.7,861.3569 377.5295,922.5921 367.1795,955.6621 " fill="none" id="Bichard.Reporting-to-Bichard.StaticFileService" style="stroke:#666666;stroke-width:1.0;"/><polygon fill="#666666" points="364.79,963.2969,370.0425,956.5581,364.3164,954.766,364.79,963.2969" style="stroke:#666666;stroke-width:1.0;"/><text fill="#666666" font-family="sans-serif" font-size="0" lengthAdjust="spacing" textLength="0" x="385" y="906.7969">.</text></g><!--link Bichard.Reporting to Bichard.EmailSystem--><g id="link_Bichard.Reporting_Bichard.EmailSystem"><path d="M428.03,828.0869 C452.83,859.0869 497.3624,914.7499 525.4024,949.7999 " fill="none" id="Bichard.Reporting-to-Bichard.EmailSystem" style="stroke:#666666;stroke-width:1.0;"/><polygon fill="#666666" points="530.4,956.0469,527.745,947.9258,523.0598,951.674,530.4,956.0469" style="stroke:#666666;stroke-width:1.0;"/><text fill="#666666" font-family="sans-serif" font-size="0" lengthAdjust="spacing" textLength="0" x="507" y="906.7969">.</text></g><!--link Bichard.Reporting to Bichard.BichardDatabase--><g id="link_Bichard.Reporting_Bichard.BichardDatabase"><path d="M389.46,827.9969 C349.34,860.2969 270.18,925.9569 251,956.2969 C222.66,1001.1269 210.336,1054.3742 204.376,1090.3942 " fill="none" id="Bichard.Reporting-to-Bichard.BichardDatabase" style="stroke:#666666;stroke-width:1.0;"/><polygon fill="#666666" points="203.07,1098.2869,207.3357,1090.8839,201.4162,1089.9045,203.07,1098.2869" style="stroke:#666666;stroke-width:1.0;"/><text fill="#666666" font-family="sans-serif" font-size="0" lengthAdjust="spacing" textLength="0" x="252" y="977.7969">.</text></g><!--link Bichard.Monitoring to Bichard.BichardJavaApplication--><g id="link_Bichard.Monitoring_Bichard.BichardJavaApplication"><path d="M338,240.4269 C338,261.2169 338,287.2869 338,313.0369 " fill="none" id="Bichard.Monitoring-to-Bichard.BichardJavaApplication" style="stroke:#666666;stroke-width:1.0;"/><polygon fill="#666666" points="338,321.0369,341,313.0369,335,313.0369,338,321.0369" style="stroke:#666666;stroke-width:1.0;"/><text fill="#666666" font-family="sans-serif" font-size="0" lengthAdjust="spacing" textLength="0" x="339" y="280.2969">.</text></g><!--link Bichard.BichardJavaApplication to Bichard.Beanconnect--><g id="link_Bichard.BichardJavaApplication_Bichard.Beanconnect"><path d="M402.38,378.4169 C481.81,403.8769 608.0917,444.3252 684.4417,468.7952 " fill="none" id="Bichard.BichardJavaApplication-to-Bichard.Beanconnect" style="stroke:#666666;stroke-width:1.0;"/><polygon fill="#666666" points="692.06,471.2369,685.3573,465.9384,683.5261,471.6521,692.06,471.2369" style="stroke:#666666;stroke-width:1.0;"/><text fill="#666666" font-family="sans-serif" font-size="0" lengthAdjust="spacing" textLength="0" x="569" y="423.2969">.</text></g><!--link Bichard.Beanconnect to PSNProxy--><g id="link_Bichard.Beanconnect_PSNProxy"><path d="M773.86,510.4269 C799.97,530.8269 836.1055,559.0521 868.3655,584.2521 " fill="none" id="Bichard.Beanconnect-to-PSNProxy" style="stroke:#666666;stroke-width:1.0;"/><polygon fill="#666666" points="874.67,589.1769,870.2123,581.8879,866.5187,586.6163,874.67,589.1769" style="stroke:#666666;stroke-width:1.0;"/><text fill="#666666" font-family="sans-serif" font-size="0" lengthAdjust="spacing" textLength="0" x="835" y="548.2969">.</text></g><!--link PSNProxy to Bichard.NginxAuthProxy--><g id="link_PSNProxy_Bichard.NginxAuthProxy"><path d="M905.5,589.2569 C891.28,555.3869 866.69,503.3069 836,464.2969 C763.72,372.4369 659.7372,292.9324 602.2472,252.1924 " fill="none" id="PSNProxy-to-Bichard.NginxAuthProxy" style="stroke:#666666;stroke-width:1.0;"/><polygon fill="#666666" points="595.72,247.5669,600.5127,254.6401,603.9818,249.7447,595.72,247.5669" style="stroke:#666666;stroke-width:1.0;"/><text fill="#666666" font-family="sans-serif" font-size="0" lengthAdjust="spacing" textLength="0" x="809" y="423.2969">.</text></g><!--link Bichard.EmailSystem to CJSM--><g id="link_Bichard.EmailSystem_CJSM"><path d="M619.26,1006.3769 C680.02,1027.3869 770.68,1060.9969 846,1098.2969 C852.79,1101.6569 853.0192,1101.5357 859.6192,1105.5157 " fill="none" id="Bichard.EmailSystem-to-CJSM" style="stroke:#666666;stroke-width:1.0;"/><polygon fill="#666666" points="866.47,1109.6469,861.1684,1102.9466,858.07,1108.0847,866.47,1109.6469" style="stroke:#666666;stroke-width:1.0;"/><text fill="#666666" font-family="sans-serif" font-size="12" font-weight="bold" lengthAdjust="spacing" textLength="44" x="776" y="1051.4355">Sends</text><text fill="#666666" font-family="sans-serif" font-size="12" font-weight="bold" lengthAdjust="spacing" textLength="4" x="820" y="1051.4355">&#160;</text><text fill="#666666" font-family="sans-serif" font-size="12" font-weight="bold" lengthAdjust="spacing" textLength="79" x="824" y="1051.4355">verification</text><text fill="#666666" font-family="sans-serif" font-size="12" font-weight="bold" lengthAdjust="spacing" textLength="34" x="822.5" y="1065.4043">code</text></g><!--link Bichard.BichardUserService to Bichard.EmailSystem--><g id="link_Bichard.BichardUserService_Bichard.EmailSystem"><path d="M570.49,867.4569 C562.63,876.5569 555.8,886.5469 551,897.2969 C542.75,915.7869 542.3325,930.9684 544.6725,948.3484 " fill="none" id="Bichard.BichardUserService-to-Bichard.EmailSystem" style="stroke:#666666;stroke-width:1.0;"/><polygon fill="#666666" points="545.74,956.2769,547.6457,947.9481,541.6994,948.7487,545.74,956.2769" style="stroke:#666666;stroke-width:1.0;"/><text fill="#666666" font-family="sans-serif" font-size="12" font-weight="bold" lengthAdjust="spacing" textLength="44" x="552" y="909.4355">Sends</text><text fill="#666666" font-family="sans-serif" font-size="12" font-weight="bold" lengthAdjust="spacing" textLength="4" x="596" y="909.4355">&#160;</text><text fill="#666666" font-family="sans-serif" font-size="12" font-weight="bold" lengthAdjust="spacing" textLength="79" x="600" y="909.4355">verification</text><text fill="#666666" font-family="sans-serif" font-size="12" font-weight="bold" lengthAdjust="spacing" textLength="34" x="598.5" y="923.4043">code</text></g><!--link Bichard.NginxAuthProxy to Bichard.BichardJavaApplication--><g id="link_Bichard.NginxAuthProxy_Bichard.BichardJavaApplication"><path d="M516.1,247.3169 C481.69,268.2769 439.4626,293.9957 401.5326,317.0957 " fill="none" id="Bichard.NginxAuthProxy-to-Bichard.BichardJavaApplication" style="stroke:#666666;stroke-width:1.0;"/><polygon fill="#666666" points="394.7,321.2569,403.0931,319.6579,399.9722,314.5335,394.7,321.2569" style="stroke:#666666;stroke-width:1.0;"/><text fill="#666666" font-family="sans-serif" font-size="0" lengthAdjust="spacing" textLength="0" x="462" y="280.2969">.</text></g><!--link Bichard.NginxAuthProxy to Bichard.BichardUserService--><g id="link_Bichard.NginxAuthProxy_Bichard.BichardUserService"><path d="M570.44,247.3169 C582.18,273.7869 598,316.7069 598,355.7969 C598,355.7969 598,355.7969 598,625.7969 C598,668.1869 608.2875,706.619 621.1875,741.679 " fill="none" id="Bichard.NginxAuthProxy-to-Bichard.BichardUserService" style="stroke:#666666;stroke-width:1.0;"/><polygon fill="#666666" points="623.95,749.1869,624.003,740.643,618.3721,742.7149,623.95,749.1869" style="stroke:#666666;stroke-width:1.0;"/><text fill="#666666" font-family="sans-serif" font-size="12" font-weight="bold" lengthAdjust="spacing" textLength="35" x="599" y="495.4355">Uses</text></g><!--link Bichard.NginxAuthProxy to Bichard.StaticFileService--><g id="link_Bichard.NginxAuthProxy_Bichard.StaticFileService"><path d="M540.29,247.7069 C524.22,273.8069 503,315.8169 503,355.7969 C503,355.7969 503,355.7969 503,809.2969 C503,861.3469 528.11,883.8369 498,926.2969 C485.75,943.5669 474.5904,952.3898 455.0104,960.5798 " fill="none" id="Bichard.NginxAuthProxy-to-Bichard.StaticFileService" style="stroke:#666666;stroke-width:1.0;"/><polygon fill="#666666" points="447.63,963.6669,456.168,963.3474,453.8527,957.8121,447.63,963.6669" style="stroke:#666666;stroke-width:1.0;"/><text fill="#666666" font-family="sans-serif" font-size="0" lengthAdjust="spacing" textLength="0" x="504" y="548.2969">.</text></g><!--link Bichard.BichardUserService to Bichard.BichardDatabase--><g id="link_Bichard.BichardUserService_Bichard.BichardDatabase"><path d="M675.7,867.5469 C679.14,877.2969 682.11,887.4469 684,897.2969 C694.16,950.3169 679.63,976.1769 637,1009.2969 C534.32,1089.0569 390.0171,1114.712 294.7271,1123.382 " fill="none" id="Bichard.BichardUserService-to-Bichard.BichardDatabase" style="stroke:#666666;stroke-width:1.0;"/><polygon fill="#666666" points="286.76,1124.1069,294.9989,1126.3696,294.4553,1120.3943,286.76,1124.1069" style="stroke:#666666;stroke-width:1.0;"/><text fill="#666666" font-family="sans-serif" font-size="12" font-weight="bold" lengthAdjust="spacing" textLength="44" x="682" y="980.4355">Reads</text><text fill="#666666" font-family="sans-serif" font-size="12" font-weight="bold" lengthAdjust="spacing" textLength="4" x="726" y="980.4355">&#160;</text><text fill="#666666" font-family="sans-serif" font-size="12" font-weight="bold" lengthAdjust="spacing" textLength="32" x="730" y="980.4355">from</text><text fill="#666666" font-family="sans-serif" font-size="12" font-weight="bold" lengthAdjust="spacing" textLength="4" x="762" y="980.4355">&#160;</text><text fill="#666666" font-family="sans-serif" font-size="12" font-weight="bold" lengthAdjust="spacing" textLength="4" x="766" y="980.4355">/</text><text fill="#666666" font-family="sans-serif" font-size="12" font-weight="bold" lengthAdjust="spacing" textLength="4" x="770" y="980.4355">&#160;</text><text fill="#666666" font-family="sans-serif" font-size="12" font-weight="bold" lengthAdjust="spacing" textLength="47" x="774" y="980.4355">Writes</text><text fill="#666666" font-family="sans-serif" font-size="12" font-weight="bold" lengthAdjust="spacing" textLength="15" x="744" y="994.4043">to</text></g><!--link Bichard.BichardJavaApplication to Bichard.BichardDatabase--><g id="link_Bichard.BichardJavaApplication_Bichard.BichardDatabase"><path d="M339.06,392.6269 C341.53,494.4669 343.93,789.4369 292,867.2969 C276.12,891.1169 253.08,875.0969 235,897.2969 C217.77,918.4569 224.67,929.8369 218,956.2969 C208.77,992.8969 204.23,1001.7869 200,1039.2969 C197.8,1058.7969 197.4057,1072.858 197.6957,1090.128 " fill="none" id="Bichard.BichardJavaApplication-to-Bichard.BichardDatabase" style="stroke:#666666;stroke-width:1.0;"/><polygon fill="#666666" points="197.83,1098.1269,200.6953,1090.0776,194.6961,1090.1784,197.83,1098.1269" style="stroke:#666666;stroke-width:1.0;"/><text fill="#666666" font-family="sans-serif" font-size="12" font-weight="bold" lengthAdjust="spacing" textLength="44" x="332" y="702.4355">Reads</text><text fill="#666666" font-family="sans-serif" font-size="12" font-weight="bold" lengthAdjust="spacing" textLength="4" x="376" y="702.4355">&#160;</text><text fill="#666666" font-family="sans-serif" font-size="12" font-weight="bold" lengthAdjust="spacing" textLength="32" x="380" y="702.4355">from</text><text fill="#666666" font-family="sans-serif" font-size="12" font-weight="bold" lengthAdjust="spacing" textLength="4" x="412" y="702.4355">&#160;</text><text fill="#666666" font-family="sans-serif" font-size="12" font-weight="bold" lengthAdjust="spacing" textLength="4" x="416" y="702.4355">/</text><text fill="#666666" font-family="sans-serif" font-size="12" font-weight="bold" lengthAdjust="spacing" textLength="4" x="420" y="702.4355">&#160;</text><text fill="#666666" font-family="sans-serif" font-size="12" font-weight="bold" lengthAdjust="spacing" textLength="47" x="424" y="702.4355">Writes</text><text fill="#666666" font-family="sans-serif" font-size="12" font-weight="bold" lengthAdjust="spacing" textLength="15" x="394" y="716.4043">to</text></g><!--link ExISS to Bichard.MessageTransferLambda--><g id="link_ExISS_Bichard.MessageTransferLambda"><path d="M131,83.4969 C131,110.5469 131,152.7969 131,184.1369 " fill="none" id="ExISS-to-Bichard.MessageTransferLambda" style="stroke:#666666;stroke-width:1.0;"/><polygon fill="#666666" points="131,192.1369,134,184.1369,128,184.1369,131,192.1369" style="stroke:#666666;stroke-width:1.0;"/><text fill="#666666" font-family="sans-serif" font-size="0" lengthAdjust="spacing" textLength="0" x="132" y="114.2969">.</text></g><!--link Bichard.MessageTransferLambda to Bichard.IncomingMessageHandlerStepFunction--><g id="link_Bichard.MessageTransferLambda_Bichard.IncomingMessageHandlerStepFunction"><path d="M131,249.5569 C131,272.5569 131,297.0769 131,320.0669 " fill="none" id="Bichard.MessageTransferLambda-to-Bichard.IncomingMessageHandlerStepFunction" style="stroke:#666666;stroke-width:1.0;"/><polygon fill="#666666" points="131,328.0669,134,320.0669,128,320.0669,131,328.0669" style="stroke:#666666;stroke-width:1.0;"/><text fill="#666666" font-family="sans-serif" font-size="0" lengthAdjust="spacing" textLength="0" x="132" y="280.2969">.</text></g><!--link Bichard.IncomingMessageHandlerStepFunction to Bichard.AuditLog--><g id="link_Bichard.IncomingMessageHandlerStepFunction_Bichard.AuditLog"><path d="M120.03,385.3069 C90.96,461.5969 15.88,682.3569 42,867.2969 C46.89,901.9169 56.9625,933.2098 65.1125,955.5898 " fill="none" id="Bichard.IncomingMessageHandlerStepFunction-to-Bichard.AuditLog" style="stroke:#666666;stroke-width:1.0;"/><polygon fill="#666666" points="67.85,963.1069,67.9315,954.5633,62.2936,956.6163,67.85,963.1069" style="stroke:#666666;stroke-width:1.0;"/><text fill="#666666" font-family="sans-serif" font-size="0" lengthAdjust="spacing" textLength="0" x="61" y="619.7969">.</text></g><!--link Bichard.IncomingMessageHandlerStepFunction to Bichard.ActiveMQ--><g id="link_Bichard.IncomingMessageHandlerStepFunction_Bichard.ActiveMQ"><path d="M153.01,385.4669 C171.41,408.5969 192.4807,435.0854 210.4607,457.6954 " fill="none" id="Bichard.IncomingMessageHandlerStepFunction-to-Bichard.ActiveMQ" style="stroke:#666666;stroke-width:1.0;"/><polygon fill="#666666" points="215.44,463.9569,212.8088,455.8281,208.1126,459.5626,215.44,463.9569" style="stroke:#666666;stroke-width:1.0;"/><text fill="#666666" font-family="sans-serif" font-size="0" lengthAdjust="spacing" textLength="0" x="190" y="423.2969">.</text></g><!--link Bichard.ActiveMQ to Bichard.EventLambda--><g id="link_Bichard.ActiveMQ_Bichard.EventLambda"><path d="M223.7,517.5569 C211.46,543.2169 196.3948,574.7766 185.4548,597.7066 " fill="none" id="Bichard.ActiveMQ-to-Bichard.EventLambda" style="stroke:#666666;stroke-width:1.0;"/><polygon fill="#666666" points="182.01,604.9269,188.1625,598.9984,182.7472,596.4147,182.01,604.9269" style="stroke:#666666;stroke-width:1.0;"/><text fill="#666666" font-family="sans-serif" font-size="0" lengthAdjust="spacing" textLength="0" x="209" y="548.2969">.</text></g><!--link Bichard.EventLambda to Bichard.EventHandlerStepFunction--><g id="link_Bichard.EventLambda_Bichard.EventHandlerStepFunction"><path d="M171.14,644.5369 C167.96,676.5969 162.2497,734.1659 158.5397,771.5659 " fill="none" id="Bichard.EventLambda-to-Bichard.EventHandlerStepFunction" style="stroke:#666666;stroke-width:1.0;"/><polygon fill="#666666" points="157.75,779.5269,161.5251,771.8621,155.5544,771.2698,157.75,779.5269" style="stroke:#666666;stroke-width:1.0;"/><text fill="#666666" font-family="sans-serif" font-size="0" lengthAdjust="spacing" textLength="0" x="167" y="699.7969">.</text></g><!--link Bichard.EventHandlerStepFunction to Bichard.AuditLog--><g id="link_Bichard.EventHandlerStepFunction_Bichard.AuditLog"><path d="M142.15,837.0169 C125.72,872.4369 101.0749,925.5589 86.9949,955.9289 " fill="none" id="Bichard.EventHandlerStepFunction-to-Bichard.AuditLog" style="stroke:#666666;stroke-width:1.0;"/><polygon fill="#666666" points="83.63,963.1869,89.7166,957.1908,84.2732,954.6671,83.63,963.1869" style="stroke:#666666;stroke-width:1.0;"/><text fill="#666666" font-family="sans-serif" font-size="0" lengthAdjust="spacing" textLength="0" x="114" y="906.7969">.</text></g><!--link Bichard.ActiveMQ to Bichard.BichardJavaApplication--><g id="link_Bichard.ActiveMQ_Bichard.BichardJavaApplication"><path d="M255.85,464.1069 C271.63,443.6869 288.9594,421.2679 306.3094,398.8079 " fill="none" id="Bichard.ActiveMQ-to-Bichard.BichardJavaApplication" style="stroke:#666666;stroke-width:1.0;"/><polygon fill="#666666" points="311.2,392.4769,303.9352,396.9739,308.6835,400.6419,311.2,392.4769" style="stroke:#666666;stroke-width:1.0;"/><text fill="#666666" font-family="sans-serif" font-size="0" lengthAdjust="spacing" textLength="0" x="288" y="423.2969">.</text></g><!--link Bichard.BichardJavaApplication to Bichard.ActiveMQ--><g id="link_Bichard.BichardJavaApplication_Bichard.ActiveMQ"><path d="M296.78,392.5269 C287.32,401.6369 277.77,411.8469 270,422.2969 C260.45,435.1469 255.5712,443.7852 249.6312,456.9452 " fill="none" id="Bichard.BichardJavaApplication-to-Bichard.ActiveMQ" style="stroke:#666666;stroke-width:1.0;"/><polygon fill="#666666" points="246.34,464.2369,252.3656,458.1794,246.8968,455.711,246.34,464.2369" style="stroke:#666666;stroke-width:1.0;"/><text fill="#666666" font-family="sans-serif" font-size="0" lengthAdjust="spacing" textLength="0" x="271" y="423.2969">.</text></g><rect fill="none" height="16.2969" style="stroke:none;stroke-width:1.0;" width="190" x="760.5" y="1200.2969"/><text fill="#000000" font-family="sans-serif" font-size="14" font-weight="bold" lengthAdjust="spacing" textLength="59" x="760.5" y="1213.292">Legend</text><text fill="#FFFFFF" font-family="sans-serif" font-size="14" lengthAdjust="spacing" textLength="4" x="819.5" y="1213.292">&#160;</text><rect fill="#1168BD" height="16.2969" style="stroke:none;stroke-width:1.0;" width="190" x="760.5" y="1216.5938"/><text fill="#3C7FC0" font-family="sans-serif" font-size="14" lengthAdjust="spacing" textLength="8" x="764.5" y="1229.5889">&#9647;</text><text fill="#FFFFFF" font-family="sans-serif" font-size="14" lengthAdjust="spacing" textLength="4" x="772.5" y="1229.5889">&#160;</text><text fill="#FFFFFF" font-family="sans-serif" font-size="14" lengthAdjust="spacing" textLength="50" x="780.5" y="1229.5889">system</text><text fill="#FFFFFF" font-family="sans-serif" font-size="14" lengthAdjust="spacing" textLength="4" x="834.5" y="1229.5889">&#160;</text><rect fill="#438DD5" height="16.2969" style="stroke:none;stroke-width:1.0;" width="190" x="760.5" y="1232.8906"/><text fill="#3C7FC0" font-family="sans-serif" font-size="14" lengthAdjust="spacing" textLength="8" x="764.5" y="1245.8857">&#9647;</text><text fill="#FFFFFF" font-family="sans-serif" font-size="14" lengthAdjust="spacing" textLength="4" x="772.5" y="1245.8857">&#160;</text><text fill="#FFFFFF" font-family="sans-serif" font-size="14" lengthAdjust="spacing" textLength="65" x="780.5" y="1245.8857">container</text><text fill="#FFFFFF" font-family="sans-serif" font-size="14" lengthAdjust="spacing" textLength="4" x="849.5" y="1245.8857">&#160;</text><rect fill="none" height="16.2969" style="stroke:none;stroke-width:1.0;" width="190" x="760.5" y="1249.1875"/><text fill="#444444" font-family="sans-serif" font-size="14" lengthAdjust="spacing" textLength="8" x="764.5" y="1262.1826">&#9647;</text><text fill="#FFFFFF" font-family="sans-serif" font-size="14" lengthAdjust="spacing" textLength="4" x="772.5" y="1262.1826">&#160;</text><text fill="#444444" font-family="sans-serif" font-size="14" lengthAdjust="spacing" textLength="119" x="780.5" y="1262.1826">system boundary</text><text fill="#444444" font-family="sans-serif" font-size="10" lengthAdjust="spacing" textLength="43" x="903.5" y="1263.126">(dashed)</text><text fill="#FFFFFF" font-family="sans-serif" font-size="14" lengthAdjust="spacing" textLength="4" x="946.5" y="1262.1826">&#160;</text><line style="stroke:none;stroke-width:1.0;" x1="760.5" x2="950.5" y1="1200.2969" y2="1200.2969"/><line style="stroke:none;stroke-width:1.0;" x1="760.5" x2="950.5" y1="1216.5938" y2="1216.5938"/><line style="stroke:none;stroke-width:1.0;" x1="760.5" x2="950.5" y1="1232.8906" y2="1232.8906"/><line style="stroke:none;stroke-width:1.0;" x1="760.5" x2="950.5" y1="1249.1875" y2="1249.1875"/><line style="stroke:none;stroke-width:1.0;" x1="760.5" x2="950.5" y1="1265.4844" y2="1265.4844"/><line style="stroke:none;stroke-width:1.0;" x1="760.5" x2="760.5" y1="1200.2969" y2="1265.4844"/><line style="stroke:none;stroke-width:1.0;" x1="950.5" x2="950.5" y1="1200.2969" y2="1265.4844"/></g></svg>